<?xml version="1.0" standalone="no"?>
<!DOCTYPE svg PUBLIC "-//W3C//DTD SVG 20010904//EN"
 "http://www.w3.org/TR/2001/REC-SVG-20010904/DTD/svg10.dtd">
<svg version="1.0" xmlns="http://www.w3.org/2000/svg"
 width="300.000000pt" height="169.000000pt" viewBox="0 0 300.000000 169.000000"
 preserveAspectRatio="xMidYMid meet">
<metadata>
Created by potrace 1.10, written by Peter Selinger 2001-2011
</metadata>
<g transform="translate(0.000000,169.000000) scale(0.100000,-0.100000)"
fill="#FF0000" stroke="none" color="red" >
<path d="M2451 1643 c-61 -14 -63 -16 -42 -28 l23 -12 -23 -6 c-35 -10 -39 -9
-32 9 7 19 -12 17 -150 -15 -75 -18 -95 -26 -87 -36 7 -9 6 -16 -5 -25 -9 -8
-15 -9 -14 -4 4 21 -2 34 -16 34 -8 0 -15 -7 -15 -15 0 -8 5 -15 12 -15 6 0 9
-2 6 -5 -8 -9 -38 6 -32 16 3 5 -6 8 -20 7 -15 -1 -26 -5 -26 -9 0 -4 -6 -6
-12 -6 -7 1 -35 -2 -61 -6 l-48 -8 23 -19 c23 -19 16 -25 -19 -21 -7 1 -13 -3
-13 -9 0 -5 5 -10 10 -10 21 0 145 32 168 43 13 6 34 10 48 9 13 -1 24 3 24 8
0 5 6 7 13 4 7 -2 31 2 52 9 22 8 46 12 53 10 6 -3 12 0 12 5 0 6 10 8 23 4
19 -5 20 -3 10 10 -15 18 -45 17 -67 -2 -9 -7 -19 -10 -23 -6 -3 3 -1 6 6 6 7
0 9 5 5 12 -4 7 -3 8 4 4 7 -4 12 -3 12 2 0 5 15 8 34 8 19 -1 32 -4 30 -7
-10 -17 44 -16 109 1 40 10 88 22 107 25 19 3 36 8 38 10 6 6 38 -27 51 -52
14 -26 19 -28 44 -9 17 13 17 17 3 43 -8 16 -22 36 -31 43 -23 19 -108 21
-184 3z m115 -5 c4 -7 3 -8 -4 -4 -7 4 -12 2 -12 -3 0 -6 -4 -11 -10 -11 -5 0
-7 7 -4 15 7 18 20 19 30 3z m55 -30 c9 -18 8 -18 -11 -8 -11 6 -18 15 -15 21
4 5 1 9 -4 9 -6 0 -11 5 -11 11 0 15 27 -7 41 -33z m-117 17 c3 -8 1 -15 -4
-15 -6 0 -10 7 -10 15 0 8 2 15 4 15 2 0 6 -7 10 -15z m-34 1 c0 -2 -7 -7 -16
-10 -8 -3 -12 -2 -9 4 6 10 25 14 25 6z m-110 -37 c0 -6 -4 -7 -10 -4 -5 3
-10 11 -10 16 0 6 5 7 10 4 6 -3 10 -11 10 -16z m-155 -29 c-3 -5 -10 -10 -16
-10 -5 0 -9 5 -9 10 0 6 7 10 16 10 8 0 12 -4 9 -10z m-130 -50 c-3 -5 -12
-10 -18 -10 -7 0 -6 4 3 10 19 12 23 12 15 0z m-90 -10 c-3 -5 -11 -10 -16
-10 -6 0 -7 5 -4 10 3 6 11 10 16 10 6 0 7 -4 4 -10z"/>
<path d="M2647 1536 c-16 -13 -17 -19 -7 -58 7 -23 13 -50 15 -58 27 -129 37
-160 56 -160 11 0 18 -4 14 -10 -3 -5 -12 -7 -20 -4 -12 5 -13 1 -5 -22 5 -16
14 -55 20 -87 12 -61 30 -79 54 -54 13 13 12 27 -11 122 -22 94 -28 106 -44
102 -11 -3 -19 -2 -20 1 0 4 -2 18 -5 31 -3 15 2 28 13 37 21 15 10 42 -24 59
-21 11 -19 35 3 48 10 6 10 14 2 37 -11 34 -15 35 -41 16z m28 -16 c-3 -5 -10
-10 -16 -10 -5 0 -9 5 -9 10 0 6 7 10 16 10 8 0 12 -4 9 -10z m22 -106 c-3 -3
-12 -4 -19 -1 -8 3 -5 6 6 6 11 1 17 -2 13 -5z m3 -26 c0 -4 -4 -8 -9 -8 -6 0
-12 4 -15 8 -3 5 1 9 9 9 8 0 15 -4 15 -9z m45 -169 c11 -17 0 -20 -21 -4 -17
13 -17 14 -2 15 9 0 20 -5 23 -11z m15 -53 c0 -3 -4 -8 -10 -11 -5 -3 -10 -1
-10 4 0 6 5 11 10 11 6 0 10 -2 10 -4z m8 -62 c2 -1 -1 -5 -7 -8 -5 -4 -15 4
-22 16 -12 22 -11 22 7 8 10 -8 20 -15 22 -16z"/>
<path d="M1815 1493 c-27 -8 -57 -16 -65 -17 -78 -14 -180 -41 -180 -49 0 -5
7 -7 15 -3 8 3 15 1 15 -4 0 -14 -18 -21 -25 -10 -4 6 -16 8 -27 4 -15 -4 -18
-3 -13 7 6 9 3 11 -9 6 -10 -4 -20 -7 -22 -7 -2 0 -4 -7 -4 -15 0 -11 7 -14
25 -11 32 6 32 -2 0 -14 -29 -11 -55 -4 -55 16 0 8 -3 14 -6 14 -10 0 -308
-71 -324 -77 -8 -3 -19 -7 -25 -7 -51 -5 -185 -43 -185 -53 0 -6 -13 -18 -29
-26 -25 -12 -31 -12 -35 -1 -3 8 0 11 10 7 7 -3 14 0 14 6 0 6 7 8 15 5 8 -4
15 -1 15 5 0 14 0 14 -74 -5 -41 -11 -68 -24 -83 -42 -12 -15 -22 -22 -23 -15
0 6 6 13 13 16 6 2 9 8 5 12 -4 4 -35 0 -70 -10 -69 -18 -83 -21 -145 -31 -38
-6 -42 -9 -39 -29 3 -17 -1 -25 -17 -29 -34 -9 -40 -7 -27 9 7 8 19 15 27 15
8 0 12 4 8 9 -6 11 -37 7 -107 -14 -25 -7 -49 -11 -52 -8 -3 4 -6 2 -6 -4 0
-5 -14 -10 -31 -11 -39 -1 -49 -10 -26 -23 9 -6 15 -15 11 -20 -3 -5 7 -8 24
-7 20 1 28 6 25 15 -3 7 0 13 6 13 6 0 11 -4 11 -9 0 -8 87 4 120 17 22 8 20
7 87 21 60 13 75 28 43 43 -10 4 -5 7 15 8 17 2 33 2 37 1 4 0 23 6 42 14 28
12 36 12 36 3 0 -7 -11 -14 -25 -15 -57 -6 -65 -8 -69 -20 -6 -16 13 -17 51
-2 15 6 41 12 56 14 78 10 104 23 77 40 -5 3 -10 12 -10 18 0 7 9 1 19 -12
l18 -23 96 22 c53 12 95 25 93 29 -3 4 11 5 31 3 25 -3 34 -1 29 7 -5 7 -1 9
8 5 9 -3 16 -2 16 4 0 5 8 9 17 9 68 0 74 2 63 23 -13 24 -3 26 21 4 19 -17
60 -11 56 8 -1 6 4 12 11 13 7 2 8 1 2 -2 -11 -5 -4 -23 9 -23 5 0 14 14 21
31 10 22 16 27 24 19 8 -8 6 -15 -8 -26 -25 -18 -18 -18 58 2 33 9 70 18 81
20 93 18 165 40 170 52 4 10 0 13 -15 9 -11 -3 -18 -1 -14 4 8 13 25 11 43 -5
23 -21 71 -9 72 18 1 18 2 18 6 3 4 -14 11 -17 26 -13 12 3 28 6 35 6 7 0 11
3 9 8 -3 4 10 7 29 8 19 0 40 6 47 13 9 10 6 10 -15 2 -41 -15 -34 -3 7 15 20
8 41 12 48 9 7 -4 3 1 -7 9 -23 19 -34 19 -101 -1z m16 -22 c-7 -5 -23 -6 -35
-3 -19 6 -18 7 9 12 34 7 46 3 26 -9z m-51 -21 c0 -5 -2 -10 -4 -10 -3 0 -8 5
-11 10 -3 6 -1 10 4 10 6 0 11 -4 11 -10z m-80 -16 c0 -7 -5 -16 -12 -20 -7
-4 -8 -3 -4 4 4 7 2 12 -3 12 -6 0 -11 4 -11 8 0 5 7 9 15 9 8 0 15 -6 15 -13z
m-250 -62 c0 -16 -32 -12 -37 5 -3 7 4 11 16 10 12 -1 21 -7 21 -15z m-60 -12
c0 -5 -2 -10 -4 -10 -3 0 -8 5 -11 10 -3 6 -1 10 4 10 6 0 11 -4 11 -10z
m-140 -30 c0 -5 -7 -10 -16 -10 -8 0 -12 5 -9 10 3 6 10 10 16 10 5 0 9 -4 9
-10z m-70 -9 c0 -14 -29 -21 -36 -9 -4 6 -3 8 4 4 6 -3 13 -2 17 4 8 12 15 13
15 1z m-95 -33 c-4 -10 -14 -14 -26 -11 -29 8 -32 21 -4 15 16 -3 25 0 25 9 0
7 2 10 5 7 3 -3 3 -12 0 -20z m-70 -8 c3 -5 1 -10 -4 -10 -6 0 -11 5 -11 10 0
6 2 10 4 10 3 0 8 -4 11 -10z m-27 -25 c3 -3 -1 -5 -9 -6 -8 0 -22 -2 -31 -4
-10 -2 -15 2 -12 10 5 13 40 13 52 0z m-128 -26 c0 -5 -4 -9 -8 -9 -5 0 -9 7
-9 15 0 8 4 12 9 9 4 -3 8 -9 8 -15z m-305 -60 c11 -17 2 -18 -19 -3 -17 12
-17 14 -4 14 9 0 20 -5 23 -11z m-130 -37 c-3 -3 -11 0 -18 7 -9 10 -8 11 6 5
10 -3 15 -9 12 -12z m-105 -23 c0 -5 -4 -9 -10 -9 -5 0 -10 7 -10 16 0 8 5 12
10 9 6 -3 10 -10 10 -16z m80 11 c12 -8 10 -9 -7 -7 -12 2 -26 6 -29 10 -11
11 19 8 36 -3z"/>
<path d="M2682 1458 c2 -6 10 -14 16 -16 7 -2 10 2 6 12 -7 18 -28 22 -22 4z"/>
<path d="M2704 1359 c-3 -6 -1 -15 6 -19 10 -6 9 -9 -1 -13 -10 -4 -9 -6 4 -6
12 -1 17 7 17 24 0 26 -14 33 -26 14z"/>
<path d="M1840 1160 c-8 -5 -26 -10 -40 -10 -19 0 -21 -3 -11 -9 8 -5 21 -7
30 -4 11 4 9 0 -4 -10 -21 -17 -46 -22 -44 -9 4 22 -2 35 -11 26 -6 -6 -6 -22
1 -47 9 -33 12 -35 29 -24 11 6 20 15 20 20 0 4 -6 5 -12 1 -8 -5 -7 0 2 11
14 18 15 18 18 -3 2 -16 10 -22 28 -22 29 0 31 -13 4 -40 -17 -17 -50 -19 -50
-3 0 3 6 3 14 0 16 -6 40 16 29 26 -10 11 -48 8 -60 -4 -12 -12 -6 -52 7 -44
4 2 5 -7 2 -20 -3 -17 1 -27 12 -31 13 -5 15 -14 10 -40 -5 -29 -3 -34 12 -34
14 0 16 -2 6 -9 -20 -12 4 -132 24 -124 12 4 12 8 2 20 -10 12 -9 18 7 29 10
8 15 17 12 21 -4 3 -7 3 -7 -1 0 -4 -7 0 -16 9 -9 9 -14 19 -10 22 3 4 12 1
18 -5 7 -7 20 -12 30 -12 20 0 24 -15 7 -25 -6 -4 -8 -14 -4 -22 4 -12 3 -13
-8 -5 -18 15 -30 3 -16 -14 11 -13 39 -12 79 3 8 3 23 6 32 7 24 1 22 21 -1
21 -11 0 -23 3 -27 8 -4 4 5 7 21 7 15 0 33 -7 40 -16 10 -14 19 -15 51 -7 35
8 39 12 37 39 -1 16 -3 39 -4 52 -2 27 0 27 -90 -2 -41 -14 -77 -21 -80 -18
-3 4 -12 33 -19 65 -7 31 -17 57 -22 57 -5 0 -6 5 -3 10 7 11 -14 150 -24 162
-3 4 -13 3 -21 -2z m15 -40 c-3 -5 -11 -10 -16 -10 -6 0 -7 5 -4 10 3 6 11 10
16 10 6 0 7 -4 4 -10z m12 -132 c17 -35 26 -61 28 -79 1 -8 10 -27 19 -42 14
-21 23 -25 46 -21 15 4 30 2 34 -4 3 -5 0 -10 -7 -9 -40 1 -47 -3 -42 -26 5
-17 2 -24 -9 -24 -8 0 -13 3 -11 7 6 10 -15 80 -23 80 -5 0 -13 -5 -19 -11 -8
-8 -14 -5 -22 10 -7 12 -9 21 -5 21 3 0 2 6 -3 13 -6 6 -13 22 -16 35 -4 17
-1 22 14 22 10 0 19 5 19 11 0 7 -10 9 -25 7 -14 -3 -28 -1 -31 3 -3 5 2 9 10
9 9 0 16 5 16 10 0 18 16 11 27 -12z m177 -123 c11 -8 14 -15 8 -15 -7 0 -12
-5 -12 -10 0 -7 6 -7 20 0 12 6 17 17 14 28 -5 16 -5 16 6 -1 13 -20 6 -37
-16 -37 -8 0 -12 -4 -9 -10 3 -5 1 -10 -4 -10 -6 0 -11 5 -11 10 0 6 -8 10
-17 11 -11 0 -13 3 -5 6 14 6 16 33 2 33 -5 0 -10 -5 -10 -11 0 -5 -5 -7 -10
-4 -13 8 -3 25 13 25 7 0 21 -7 31 -15z"/>
<path d="M1850 939 c0 -5 5 -7 10 -4 6 3 10 8 10 11 0 2 -4 4 -10 4 -5 0 -10
-5 -10 -11z"/>
<path d="M1861 921 c-9 -6 -10 -11 -2 -15 6 -4 9 -12 6 -17 -4 -5 1 -9 9 -9
17 0 18 5 8 32 -5 11 -12 14 -21 9z"/>
<path d="M1665 1108 c-17 -13 -30 -18 -32 -11 -2 6 -13 9 -23 6 -22 -6 -22 -5
10 -124 26 -97 49 -132 63 -96 3 6 6 -1 6 -16 1 -26 0 -27 -15 -13 -20 21 -21
20 -21 -8 0 -37 31 -39 52 -4 9 16 14 32 11 35 -3 4 -6 4 -6 0 0 -3 -11 5 -25
19 -29 29 -32 44 -7 45 11 0 12 2 4 6 -10 4 -10 8 0 21 12 16 11 16 -7 0 -17
-14 -22 -14 -32 -2 -28 29 -7 37 47 17 8 -4 18 -5 23 -5 4 1 7 -3 7 -9 0 -6
-6 -9 -14 -6 -9 4 -13 -2 -13 -19 0 -13 3 -24 8 -24 5 0 9 -7 9 -15 0 -17 9
-19 27 -7 10 6 10 17 1 47 -6 22 -11 45 -10 51 1 7 -8 9 -23 6 -19 -3 -25 0
-25 13 0 13 3 15 13 6 8 -6 17 -8 20 -4 9 8 9 48 1 56 -8 8 -34 -3 -34 -15 0
-5 5 -6 10 -3 6 3 10 1 10 -4 0 -17 -21 -13 -35 6 -8 11 -19 14 -31 9 -15 -6
-16 -9 -4 -16 8 -5 18 -6 22 -4 4 3 8 0 8 -6 0 -7 -7 -10 -17 -6 -11 4 -8 -2
7 -13 23 -18 23 -20 4 -15 -12 3 -26 16 -32 29 -14 30 3 46 48 47 33 1 50 22
33 39 -6 6 -20 2 -38 -13z"/>
<path d="M178 1099 c-43 -22 -71 -75 -63 -119 6 -36 38 -172 61 -268 9 -35 27
-74 40 -89 27 -29 35 -64 9 -43 -8 7 -12 16 -9 21 3 5 0 9 -6 9 -7 0 -10 -6
-7 -12 2 -7 12 -50 22 -96 13 -61 22 -82 32 -78 7 3 13 1 13 -4 0 -6 -5 -10
-10 -10 -11 0 -3 -71 9 -80 4 -3 7 -12 7 -20 0 -37 28 -142 40 -147 7 -2 11
-10 8 -17 -6 -17 22 -40 37 -30 7 4 9 3 6 -3 -4 -6 0 -13 7 -16 8 -3 17 -1 20
6 3 9 5 9 5 0 1 -20 18 -15 24 6 4 15 11 18 27 14 22 -6 22 -7 5 -20 -25 -17
-19 -17 83 8 48 11 92 27 98 35 7 9 13 11 15 5 3 -7 25 -5 64 5 33 8 71 16 84
18 13 2 27 10 32 17 5 9 9 10 9 2 0 -6 9 -9 20 -6 16 4 18 8 9 19 -9 11 -16
11 -39 -1 -25 -13 -30 -13 -40 0 -13 16 -15 16 47 19 18 1 35 5 39 9 4 4 12 7
18 7 6 0 3 -5 -8 -11 -15 -9 -16 -13 -5 -20 17 -11 42 -12 36 -1 -3 4 14 8 37
8 61 2 126 22 126 39 0 8 -5 15 -12 15 -6 0 -9 2 -6 5 11 12 37 -7 31 -22 -4
-11 -2 -14 5 -9 7 4 12 13 12 19 0 7 11 17 23 23 18 8 24 8 24 -3 0 -7 -9 -13
-19 -13 -10 0 -18 -5 -18 -11 0 -7 7 -8 18 -4 9 4 22 8 29 8 7 0 12 3 11 6 -2
18 3 24 11 12 7 -11 20 -11 82 5 41 10 76 19 79 19 3 1 16 4 30 8 14 3 106 25
205 47 99 23 183 44 188 47 4 2 5 13 2 23 -3 10 0 22 6 26 8 4 9 3 5 -4 -5 -8
2 -12 21 -13 23 -2 24 -2 6 -6 -13 -2 -23 -9 -23 -15 0 -6 9 -8 23 -4 12 4 57
14 99 23 46 10 75 20 71 26 -4 6 -1 7 6 2 14 -8 341 65 341 76 0 4 -8 16 -17
27 -18 19 -19 19 -188 -23 -93 -23 -187 -45 -208 -49 -30 -6 -36 -10 -28 -20
14 -17 -36 -43 -53 -26 -7 7 -5 10 6 10 9 0 20 5 23 10 7 11 -19 8 -112 -12
-29 -6 -51 -14 -49 -17 2 -3 -14 -7 -35 -8 -22 0 -46 -4 -55 -7 -20 -8 -8 -26
17 -26 11 0 17 -5 14 -10 -3 -6 -17 -7 -31 -4 -16 4 -24 2 -24 -7 0 -11 -2
-11 -12 0 -10 11 -10 14 0 18 6 3 12 8 12 13 0 9 -132 -18 -140 -29 -3 -3 -13
-6 -22 -7 -10 0 -29 -1 -43 -2 -13 -1 -38 -16 -55 -32 -17 -17 -41 -30 -55
-30 -14 0 -25 -4 -25 -10 0 -5 -7 -10 -15 -10 -8 0 -15 4 -15 10 0 5 -7 7 -15
4 -8 -4 -15 -1 -15 5 0 14 27 15 35 1 4 -6 12 -6 23 0 9 5 29 11 45 15 32 6
37 25 6 25 -12 0 -17 -4 -13 -11 4 -7 0 -9 -14 -5 -25 8 -223 -40 -234 -57 -5
-8 -8 -9 -8 0 0 11 -43 4 -90 -14 -8 -3 -28 -7 -44 -9 -15 -2 -62 -13 -105
-24 -42 -12 -87 -23 -100 -26 -14 -3 -30 -13 -37 -22 -9 -12 -15 -14 -25 -5
-11 8 -38 6 -109 -10 -52 -12 -96 -25 -98 -29 -2 -4 -9 -8 -14 -8 -6 0 -8 3
-5 7 4 3 -3 11 -15 17 -13 6 -27 25 -33 41 -5 17 -12 32 -15 35 -3 3 -6 23 -7
44 -1 29 -9 45 -29 61 -16 13 -24 27 -21 36 4 10 8 8 12 -8 10 -33 27 -28 19
5 -11 52 -15 62 -23 58 -4 -3 -6 7 -4 22 6 44 -31 178 -48 174 -11 -3 -12 -1
-1 9 17 19 15 24 -14 38 -15 6 -24 14 -21 18 4 3 14 0 22 -7 14 -12 15 -9 10
21 -16 88 -38 158 -49 152 -8 -4 -8 -2 1 7 8 9 7 27 -7 76 -21 78 -12 103 45
122 47 15 60 32 37 48 -23 15 -44 14 -84 -7z m76 -10 c-6 -11 -24 -2 -24 11 0
5 7 7 15 4 8 -4 12 -10 9 -15z m-58 -21 c-9 -5 -24 -7 -34 -5 -12 3 -11 5 6 6
12 0 22 6 22 12 0 5 5 7 11 3 8 -5 6 -10 -5 -16z m-40 -104 c-2 -6 2 -21 10
-33 8 -11 11 -21 6 -21 -14 0 -33 26 -25 33 3 4 0 7 -8 7 -12 0 -11 2 1 10 13
9 13 12 -2 21 -10 5 -18 15 -18 21 0 6 9 3 20 -7 12 -10 19 -24 16 -31z m20
-89 c-3 -9 -11 -13 -16 -10 -8 5 -7 11 1 21 14 18 24 11 15 -11z m17 -48 c3
-7 -3 -13 -12 -13 -10 0 -18 6 -18 13 0 7 6 13 13 13 6 0 14 -6 17 -13z m17
-86 c0 -6 -5 -13 -10 -16 -6 -4 -7 -11 -4 -17 4 -7 2 -8 -5 -4 -8 6 -9 12 -2
20 6 7 8 16 4 19 -3 4 -1 7 5 7 7 0 12 -4 12 -9z m2087 -186 c0 -5 -11 -11
-23 -11 -14 -1 -21 3 -18 10 6 14 41 16 41 1z m-59 -23 c3 -11 0 -12 -17 -3
-16 9 -21 9 -21 0 0 -7 -3 -10 -6 -6 -10 10 7 28 24 25 8 -2 17 -9 20 -16z
m-70 -12 c3 -8 0 -10 -7 -6 -7 4 -19 2 -28 -6 -15 -12 -15 -11 -2 10 15 23 30
25 37 2z m-61 -12 c2 -18 0 -20 -7 -8 -12 18 -13 30 -2 30 4 0 9 -10 9 -22z
m-1843 -13 c-4 -8 -11 -15 -16 -15 -6 0 -5 6 2 15 7 8 14 15 16 15 2 0 1 -7
-2 -15z m1816 11 c0 -2 -9 -6 -20 -9 -11 -3 -20 -1 -20 4 0 5 9 9 20 9 11 0
20 -2 20 -4z m-102 -24 c-10 -2 -18 -7 -18 -12 0 -5 -7 -7 -15 -4 -8 4 -12 10
-9 15 3 5 9 7 14 4 5 -3 11 -1 15 5 4 6 12 7 18 3 8 -5 7 -9 -5 -11z m-222
-54 c4 -7 3 -8 -4 -4 -7 4 -12 2 -12 -3 0 -6 -8 -11 -17 -11 -15 0 -14 2 3 15
23 18 21 17 30 3z m-91 -19 c11 -16 1 -19 -13 -3 -7 8 -8 14 -3 14 5 0 13 -5
16 -11z m35 1 c0 -5 -4 -10 -10 -10 -5 0 -10 5 -10 10 0 6 5 10 10 10 6 0 10
-4 10 -10z m-190 -40 c-6 -11 -20 -20 -33 -19 -15 0 -17 2 -7 6 8 4 21 12 28
20 19 19 24 16 12 -7z m-87 -20 c-3 -11 -9 -17 -15 -14 -5 3 -4 12 3 20 16 19
18 18 12 -6z m-36 4 c-3 -3 -12 -4 -19 -1 -8 3 -5 6 6 6 11 1 17 -2 13 -5z
m-9 -21 c-10 -2 -18 -8 -18 -12 0 -4 -7 -8 -16 -8 -14 0 -14 2 2 14 10 7 25
12 33 12 13 -1 12 -2 -1 -6z m-1057 -62 c-7 -5 -10 -14 -7 -20 4 -6 3 -11 -2
-11 -5 0 -12 8 -14 18 -4 13 1 18 16 20 15 1 17 -1 7 -7z m669 -17 c0 -8 -5
-12 -10 -9 -6 4 -8 11 -5 16 9 14 15 11 15 -7z m36 1 c13 -13 13 -15 1 -15 -8
0 -17 7 -21 15 -3 8 -3 15 0 15 3 0 12 -7 20 -15z m-66 -15 c0 -5 -7 -10 -16
-10 -8 0 -12 5 -9 10 3 6 10 10 16 10 5 0 9 -4 9 -10z m-624 -35 c1 -8 -4 -15
-11 -15 -8 0 -11 7 -8 20 6 22 15 19 19 -5z m376 -24 c8 12 9 11 5 -1 -2 -8
-10 -15 -18 -15 -8 0 -20 -4 -28 -9 -11 -7 -12 -6 -5 5 18 31 29 38 33 22 2
-13 5 -14 13 -2z m63 9 c8 -13 -5 -13 -25 0 -13 8 -13 10 2 10 9 0 20 -4 23
-10z m-173 -27 c-6 -2 -10 -9 -6 -14 3 -5 -5 -9 -17 -9 -18 0 -19 2 -9 15 7 8
20 15 29 14 10 0 12 -2 3 -6z m-57 -23 c10 -11 13 -20 7 -20 -7 0 -12 5 -12
11 0 7 -10 9 -25 7 -26 -5 -35 6 -12 15 20 9 23 8 42 -13z m-185 0 c0 -5 -2
-10 -4 -10 -3 0 -8 5 -11 10 -3 6 -1 10 4 10 6 0 11 -4 11 -10z"/>
<path d="M2775 1060 c-3 -5 -2 -10 2 -10 5 0 9 -9 10 -20 1 -16 -1 -17 -12 -7
-7 6 -11 15 -9 19 5 8 -15 22 -22 15 -9 -8 18 -101 35 -121 9 -11 10 -16 4
-12 -14 8 -10 -25 12 -99 9 -29 17 -39 30 -37 13 3 16 -1 11 -13 -3 -9 -2 -13
4 -10 6 3 10 -1 10 -9 0 -21 -17 -20 -28 0 -8 14 -10 12 -16 -10 -7 -29 -39
-53 -76 -59 -15 -3 -24 -10 -22 -19 1 -9 -4 -21 -12 -27 -18 -15 -49 -3 -41
16 4 12 0 14 -17 10 -13 -3 -77 -18 -143 -33 -66 -15 -124 -31 -129 -35 -5 -5
-4 -14 3 -23 9 -11 9 -15 -1 -19 -7 -2 -10 -7 -7 -11 11 -11 40 6 38 23 -3 31
1 33 19 13 l17 -21 105 25 c58 13 114 27 125 30 11 3 31 7 44 10 14 3 28 7 33
10 5 3 21 8 36 10 30 6 74 42 67 55 -3 4 -1 10 5 14 5 3 10 26 10 51 0 40 -2
45 -19 39 -11 -3 -22 -1 -26 5 -3 6 3 10 14 10 12 0 21 6 21 13 0 13 -18 84
-27 107 -6 15 -8 26 -19 93 -6 36 -17 47 -29 27z m19 -76 c8 -22 8 -24 -6 -24
-6 0 -8 3 -5 7 4 3 2 12 -4 20 -7 8 -8 13 -1 13 5 0 13 -7 16 -16z m22 -69
c-2 -7 1 -18 7 -24 8 -8 8 -11 -2 -11 -7 0 -9 -4 -6 -10 3 -5 1 -10 -5 -10 -6
0 -9 16 -8 39 2 21 7 37 11 34 5 -3 6 -11 3 -18z m9 -75 c-3 -5 -11 -10 -16
-10 -6 0 -7 5 -4 10 3 6 11 10 16 10 6 0 7 -4 4 -10z m5 -120 c0 -5 -2 -10 -4
-10 -3 0 -8 5 -11 10 -3 6 -1 10 4 10 6 0 11 -4 11 -10z m-8 -28 c-7 -2 -10
-7 -7 -12 3 -4 -4 -10 -14 -13 -14 -3 -18 -1 -14 9 3 8 9 14 15 14 5 0 6 4 3
10 -4 6 1 7 11 3 11 -4 13 -8 6 -11z m-57 -21 c-3 -6 -14 -11 -23 -11 -15 1
-15 2 2 15 21 16 32 13 21 -4z m-137 -38 c-4 -21 -30 -24 -34 -5 -1 7 0 8 3 2
8 -16 26 -12 19 5 -3 8 -1 15 5 15 6 0 9 -8 7 -17z m-68 -3 c5 8 10 9 14 1 4
-6 -7 -16 -26 -24 -40 -17 -48 -13 -22 12 10 10 21 14 23 8 2 -5 7 -4 11 3z
m-79 -23 c-6 -8 -9 -16 -6 -19 3 -2 -1 -5 -9 -5 -11 0 -12 4 -3 19 7 10 16 18
21 18 4 0 3 -6 -3 -13z"/>
<path d="M1385 1050 c-11 -5 -33 -9 -49 -9 -16 -1 -27 -4 -23 -7 3 -3 2 -17
-3 -30 -7 -19 -6 -24 5 -24 8 0 15 6 15 13 0 21 47 37 67 22 9 -7 22 -11 29
-8 8 3 10 -7 8 -29 -3 -22 -1 -28 5 -19 7 11 11 9 20 -8 11 -20 10 -21 -13
-15 -17 4 -26 2 -26 -6 0 -6 4 -9 8 -6 4 2 14 0 22 -6 12 -8 12 -9 -2 -4 -10
3 -18 1 -18 -5 0 -6 -7 -4 -15 5 -18 18 -19 32 -2 40 6 3 3 5 -8 3 -11 -1 -20
-9 -20 -18 0 -8 -8 -23 -17 -32 -9 -10 -15 -24 -12 -31 3 -8 -4 -16 -18 -20
-34 -9 -38 -8 -31 10 3 8 12 13 19 10 9 -3 16 4 20 19 3 14 11 25 16 25 6 0 7
7 4 16 -7 18 14 42 32 36 7 -2 10 2 6 12 -8 22 -44 21 -45 -1 0 -15 -2 -15 -7
-3 -6 13 -10 12 -27 -6 -11 -11 -21 -29 -22 -40 -1 -10 0 -13 3 -6 3 6 10 12
15 12 6 0 8 -4 5 -9 -4 -5 0 -12 6 -14 10 -4 10 -6 0 -6 -8 -1 -10 -6 -6 -13
6 -10 4 -10 -7 0 -22 21 -26 14 -33 -60 -4 -40 -10 -84 -13 -98 -3 -14 -2 -22
2 -18 8 7 35 -15 35 -28 0 -5 -5 -3 -12 4 -18 18 -31 14 -25 -8 3 -11 1 -23
-4 -26 -5 -3 -9 -16 -9 -29 0 -25 5 -25 78 -3 29 9 32 13 28 38 -4 26 -1 29
35 35 22 4 37 10 35 13 -2 4 12 8 31 9 38 2 68 22 46 30 -7 3 -13 12 -13 21 0
12 3 13 12 4 24 -24 31 -11 7 14 -15 17 -20 28 -12 31 7 2 9 11 6 19 -3 8 -1
14 5 14 16 0 24 -33 10 -42 -7 -4 -8 -8 -2 -8 5 0 16 6 23 13 10 10 10 7 2
-15 -8 -22 -7 -28 7 -31 16 -4 16 -5 0 -6 -22 -1 -24 -21 -2 -21 8 0 13 -4 9
-9 -3 -6 -14 -8 -25 -6 -24 5 -34 -9 -22 -32 12 -20 41 -26 59 -12 7 6 17 8
22 4 6 -3 20 -1 33 6 18 10 19 13 7 23 -9 6 -19 20 -23 31 -7 20 -8 20 -22 1
-8 -11 -14 -15 -14 -10 0 6 5 15 12 22 9 9 4 21 -20 51 -18 22 -32 43 -32 48
0 13 -48 64 -52 56 -3 -4 -3 -2 -2 5 3 9 -74 135 -80 131 -1 0 -10 -4 -21 -9z
m-35 -100 c0 -5 -7 -7 -15 -4 -8 4 -15 8 -15 10 0 2 7 4 15 4 8 0 15 -4 15
-10z m70 -76 c5 -13 17 -24 27 -24 17 1 17 1 1 11 -10 5 -18 17 -18 26 0 10 5
13 18 8 9 -4 22 -8 29 -8 7 0 10 -4 7 -8 -2 -4 2 -10 8 -13 11 -5 11 -7 0 -12
-6 -3 -10 -9 -7 -13 2 -5 -6 -7 -20 -6 -17 2 -22 -1 -18 -11 3 -9 -1 -14 -12
-14 -19 0 -17 -31 3 -38 7 -2 10 2 6 12 -5 12 -2 15 10 10 9 -4 15 -12 13 -18
-2 -6 3 -17 12 -23 14 -11 12 -12 -10 -11 -17 1 -34 13 -45 30 -11 15 -25 28
-32 28 -9 0 -12 12 -8 40 2 22 0 40 -5 40 -5 0 -9 5 -9 11 0 5 5 7 10 4 6 -3
10 -1 10 5 0 18 20 0 30 -26z m-54 -44 c0 -22 -4 -24 -25 -11 -15 10 -7 31 12
31 7 0 13 -9 13 -20z m-48 1 c-2 -5 6 -16 17 -25 19 -14 19 -16 3 -32 -16 -17
-18 -17 -24 0 -5 14 -9 15 -16 4 -7 -9 -8 -7 -3 7 4 11 7 28 7 38 0 9 3 17 9
17 5 0 8 -4 7 -9z m172 -21 c10 -6 12 -12 5 -19 -7 -7 -14 -4 -23 9 -13 21 -6
25 18 10z m-82 -43 c22 -23 22 -24 3 -41 -15 -13 -20 -14 -24 -4 -5 11 -7 11
-15 0 -7 -11 -11 -10 -16 4 -5 13 -9 15 -18 6 -15 -15 -28 -15 -28 -1 0 5 4 8
9 5 5 -3 12 4 15 17 6 20 8 20 19 6 17 -22 61 -36 54 -18 -2 8 -10 13 -17 11
-7 -2 -10 3 -7 12 4 9 -1 17 -11 19 -14 4 -14 5 -1 6 8 0 25 -9 37 -22z m-60
-68 c-1 -17 -7 -33 -14 -36 -8 -3 -12 -8 -10 -12 3 -4 -6 -8 -19 -9 -32 -2
-41 14 -15 28 14 8 20 8 20 0 0 -6 5 -8 11 -5 6 4 8 14 5 22 -3 8 0 20 7 28
16 19 16 19 15 -16z m231 18 c-7 -7 -22 -14 -33 -14 -19 -2 -18 0 4 12 32 18
44 19 29 2z"/>
<path d="M1288 653 c7 -3 16 -2 19 1 4 3 -2 6 -13 5 -11 0 -14 -3 -6 -6z"/>
<path d="M1122 993 c-6 -2 -10 -8 -7 -12 2 -5 -8 -6 -23 -4 -26 4 -26 4 -8
-11 11 -9 14 -16 8 -16 -7 0 -12 -4 -12 -9 0 -13 43 -22 51 -10 3 5 10 9 15 7
11 -4 14 4 14 37 0 24 -11 29 -38 18z m28 -32 c0 -5 -9 -11 -20 -14 -22 -6
-28 8 -7 16 19 8 27 8 27 -2z"/>
<path d="M999 957 c-25 -7 -39 -18 -46 -38 -6 -16 -8 -28 -5 -27 23 2 30 -4
24 -24 -5 -21 -6 -21 -13 -2 -6 15 -8 15 -8 3 -1 -9 -7 -21 -14 -27 -10 -8
-12 -1 -12 33 0 23 4 41 9 38 5 -3 7 0 4 7 -4 14 -46 22 -53 10 -3 -6 31 -131
53 -190 3 -8 4 -22 3 -29 -2 -12 0 -13 12 -3 11 10 17 9 27 -3 11 -13 10 -14
-4 -9 -20 8 -31 -17 -22 -50 5 -19 11 -23 28 -20 l23 5 -22 -12 c-18 -9 -21
-18 -16 -38 3 -14 7 -28 9 -30 7 -8 114 20 114 30 0 5 -5 9 -11 9 -5 0 -7 5
-4 10 3 6 3 16 -2 23 -4 6 -8 17 -9 22 -1 6 -5 27 -9 48 -7 36 -7 37 24 37 17
0 31 3 31 6 0 11 -28 33 -34 26 -4 -3 -4 1 0 11 5 14 2 16 -12 10 -16 -6 -17
-5 -4 9 12 13 17 14 25 4 6 -7 16 -11 24 -8 10 3 12 0 8 -11 -6 -17 15 -41 26
-30 13 13 7 25 -10 19 -16 -5 -16 -5 -2 6 23 19 12 39 -17 32 -15 -4 -24 -2
-24 5 0 17 57 13 64 -5 3 -8 10 -12 16 -9 5 3 10 -1 10 -9 0 -9 -4 -16 -10
-16 -5 0 -10 -4 -10 -10 0 -5 10 -10 21 -10 17 0 20 4 15 23 -4 12 -9 34 -12
50 -4 15 -13 27 -21 27 -8 0 -11 -5 -7 -12 5 -7 3 -8 -5 -3 -13 8 -98 -12
-118 -28 -10 -7 -12 2 -9 42 3 28 1 49 -4 46 -4 -3 -6 4 -3 15 4 16 2 19 -11
14 -9 -3 -14 -10 -11 -14 3 -5 -4 -8 -15 -7 -11 1 -20 4 -20 8 0 8 51 31 58
25 2 -3 13 -1 23 5 15 7 19 6 19 -5 0 -7 -7 -16 -15 -20 -20 -7 -8 -36 16 -36
13 0 17 5 12 18 -6 15 -5 15 10 3 23 -19 114 -6 97 14 -11 13 -27 14 -45 3 -5
-3 -21 -5 -35 -4 -18 1 -25 7 -25 21 0 35 -15 40 -76 22z m-79 -68 c0 -6 -4
-7 -10 -4 -5 3 -10 11 -10 16 0 6 5 7 10 4 6 -3 10 -11 10 -16z m95 -17 c-3
-3 -11 0 -18 7 -9 10 -8 11 6 5 10 -3 15 -9 12 -12z m-12 -26 c3 -8 -1 -13
-11 -12 -9 0 -17 -5 -17 -13 0 -8 -7 -16 -15 -18 -13 -4 -13 -3 0 6 10 7 11
11 3 11 -7 0 -13 5 -13 10 0 6 7 10 15 10 8 0 15 5 15 10 0 15 17 12 23 -4z
m1 -50 c-6 -17 15 -33 25 -18 4 6 12 4 21 -6 13 -14 12 -15 -4 -9 -14 6 -17 3
-12 -8 3 -9 -1 -18 -10 -22 -12 -4 -13 -8 -3 -13 9 -6 8 -12 -5 -25 -9 -10
-14 -20 -11 -23 3 -3 11 0 17 6 18 18 33 14 17 -4 -7 -8 -21 -13 -30 -11 -10
3 -21 -2 -24 -12 -6 -14 -8 -13 -15 4 -13 31 -11 39 4 26 12 -10 17 -8 25 8
15 27 14 28 -14 35 -14 4 -25 13 -25 22 0 8 -4 12 -10 9 -5 -3 -7 0 -5 7 3 8
18 21 33 31 33 20 33 20 26 3z m42 -155 c-3 -5 0 -11 8 -14 15 -6 11 -43 -5
-53 -5 -3 -4 7 1 23 l11 28 -23 -26 c-32 -36 -55 -43 -53 -16 1 12 12 26 27
32 13 5 23 16 21 23 -3 6 0 12 7 12 6 0 9 -4 6 -9z"/>
<path d="M972 771 c-11 -6 -10 -11 3 -25 19 -19 24 -19 45 -6 12 8 10 10 -10
11 -14 0 -19 3 -12 6 6 2 10 9 6 14 -6 11 -15 11 -32 0z"/>
<path d="M1006 601 c-12 -5 -15 -10 -9 -14 6 -4 16 0 23 8 14 17 13 17 -14 6z"/>
<path d="M1731 871 c-10 -18 -9 -20 5 -14 12 4 15 3 10 -5 -4 -7 -14 -12 -21
-12 -26 0 -38 -38 -20 -62 19 -28 19 -34 -1 -42 -11 -4 -15 -2 -11 8 6 16 -13
66 -25 66 -11 0 -10 -38 2 -45 5 -3 7 -12 3 -20 -5 -15 0 -17 32 -17 85 0 90
6 69 83 -21 77 -29 88 -43 60z m26 -79 c-2 -15 -6 -26 -10 -24 -4 1 -11 2 -17
2 -5 0 -10 7 -10 16 0 8 -4 12 -10 9 -5 -3 -10 -1 -10 5 0 6 11 8 28 4 26 -6
26 -6 7 9 -20 16 -20 16 2 11 16 -5 21 -13 20 -32z"/>
<path d="M2670 661 c0 -12 5 -21 10 -21 6 0 10 6 10 14 0 8 -4 18 -10 21 -5 3
-10 -3 -10 -14z"/>
</g>
</svg>
