<?xml version="1.0" standalone="no"?>
<!DOCTYPE svg PUBLIC "-//W3C//DTD SVG 20010904//EN"
 "http://www.w3.org/TR/2001/REC-SVG-20010904/DTD/svg10.dtd">
<svg version="1.0" xmlns="http://www.w3.org/2000/svg"
 width="300.000000pt" height="257.000000pt" viewBox="0 0 300.000000 257.000000"
 preserveAspectRatio="xMidYMid meet">
<metadata>
Created by potrace 1.10, written by Peter Selinger 2001-2011
</metadata>
<g transform="translate(0.000000,257.000000) scale(0.100000,-0.100000)"
fill="#000000" stroke="none">
<path d="M935 2309 c-27 -21 -62 -43 -77 -48 -25 -9 -29 -7 -34 15 -8 31 -14
30 -57 -9 -35 -31 -98 -80 -161 -123 -65 -44 -240 -291 -320 -451 l-26 -52 38
-42 c20 -23 52 -48 71 -56 l34 -14 -30 -32 c-39 -42 -103 -134 -103 -148 0 -6
16 -33 35 -60 43 -58 113 -95 206 -110 103 -16 101 -15 83 -52 -9 -18 -34 -43
-56 -55 -97 -57 -158 -142 -158 -223 0 -42 14 -79 30 -79 6 0 10 9 10 20 0 28
14 25 28 -5 16 -34 38 -31 46 5 5 30 6 30 29 15 24 -15 24 -15 31 24 6 42 13
45 134 65 l32 6 -38 -58 c-22 -31 -49 -77 -62 -102 -12 -25 -29 -52 -37 -61
-10 -12 -15 -52 -17 -152 l-3 -136 -36 -40 c-19 -21 -40 -49 -47 -60 -8 -15
-20 -21 -45 -21 -33 0 -54 -15 -40 -28 4 -4 10 -1 12 6 3 6 15 12 27 12 19 0
22 -4 18 -25 -4 -24 -8 -25 -66 -23 l-61 1 55 7 55 7 -54 -1 c-34 -1 -56 -6
-59 -13 -3 -10 12 -13 54 -13 31 0 98 -6 148 -12 81 -12 87 -14 51 -19 -24 -4
8 -7 80 -8 66 -1 131 -4 144 -8 17 -4 22 -3 17 5 -4 7 -3 12 3 12 5 0 11 -4
13 -9 2 -7 259 -16 608 -22 62 -1 77 -4 55 -9 -16 -4 112 -6 285 -3 173 3 313
3 310 0 -3 -3 -90 -7 -193 -8 -104 -2 -191 -8 -194 -13 -4 -6 49 -7 138 -3 79
4 196 8 259 8 84 2 103 4 70 9 -34 5 -16 8 75 10 108 3 113 4 55 10 -56 6 -49
7 55 8 66 1 145 5 175 9 53 7 54 8 20 14 -20 4 26 8 110 10 132 2 138 3 65 9
l-80 6 70 3 c39 2 81 7 95 11 14 5 -22 6 -85 4 -60 -3 -111 -9 -113 -14 -2 -6
-45 -10 -95 -10 -51 0 -99 -4 -107 -9 -8 -6 -19 -7 -25 -3 -15 10 -69 9 -76
-2 -4 -4 -51 -9 -105 -9 -83 0 -90 -1 -44 -7 l55 -7 -70 -3 c-38 -2 -90 -3
-115 -2 -524 11 -656 15 -659 18 -2 2 54 4 125 5 98 1 122 3 99 10 -18 6 -69
7 -125 3 -52 -4 -109 -7 -127 -8 -17 -1 -29 -5 -25 -10 3 -5 -3 -6 -14 -2 -10
4 -140 7 -289 7 l-270 0 55 20 c102 38 115 40 213 39 53 0 97 2 97 4 0 3 -9
20 -19 37 -17 27 -17 34 -5 57 8 15 14 32 14 37 0 29 60 151 81 167 22 17 27
17 74 2 31 -10 104 -18 190 -21 137 -5 185 -16 185 -44 0 -5 9 -30 20 -55 35
-76 40 -93 29 -99 -11 -8 -59 -100 -59 -115 0 -7 37 -10 113 -9 104 2 210 -4
315 -17 31 -4 42 -2 42 8 0 11 15 13 66 10 66 -4 66 -4 58 19 -4 13 -8 35 -9
49 -1 14 -6 34 -12 45 -6 11 -13 32 -17 48 -3 15 -11 27 -17 27 -6 0 -6 -6 0
-17 16 -30 24 -110 12 -117 -6 -4 -11 -15 -11 -24 1 -12 6 -8 16 11 19 35 22
34 16 -3 -5 -32 -11 -34 -75 -24 -32 6 -41 14 -68 60 -17 30 -40 59 -52 66
-21 11 -22 10 -4 -9 10 -11 26 -36 35 -54 10 -19 26 -47 37 -63 19 -28 19 -29
0 -23 -43 13 -303 28 -367 22 l-68 -7 10 28 c6 16 24 46 41 66 16 20 29 41 29
46 0 5 9 21 21 36 14 18 16 24 6 20 -9 -3 -21 -19 -28 -36 l-13 -31 -16 49
c-9 27 -26 74 -37 104 -12 30 -24 66 -27 81 -3 14 -30 62 -60 107 -51 76 -85
160 -110 275 -6 26 6 37 19 17 13 -20 25 -9 31 28 6 35 10 40 64 61 75 30 162
99 185 147 14 29 16 51 12 100 -6 64 -6 65 67 183 6 10 5 12 -3 7 -6 -4 -25
-31 -41 -59 -24 -43 -30 -48 -36 -32 -5 12 3 38 23 77 37 70 34 75 -7 12 l-29
-46 -6 39 c-11 65 -34 124 -61 160 -14 19 -29 32 -32 29 -3 -4 4 -16 16 -29
29 -30 48 -81 57 -147 4 -30 12 -58 17 -61 15 -10 25 -196 12 -227 -24 -56
-140 -136 -228 -158 -14 -3 -25 -9 -24 -13 0 -3 0 -22 -1 -41 l-1 -34 -38 37
c-21 20 -41 37 -45 37 -4 0 -7 -17 -7 -37 l-1 -38 -25 29 c-14 15 -28 41 -31
57 -3 16 -10 29 -15 29 -13 0 0 -39 28 -82 31 -49 54 -50 54 -2 0 21 4 33 10
29 6 -4 8 -11 5 -16 -4 -5 0 -11 7 -14 7 -3 14 -24 16 -49 4 -67 45 -176 103
-277 28 -49 56 -92 60 -95 5 -3 9 -14 9 -24 0 -17 -8 -18 -107 -14 -133 5
-241 21 -270 40 -13 8 -23 12 -23 9 0 -14 -101 49 -152 95 -98 88 -177 243
-194 377 -3 25 -12 52 -20 60 -8 8 -26 30 -40 49 -22 28 -24 37 -14 49 10 12
16 13 26 4 11 -9 15 -8 20 5 3 8 4 21 2 28 -7 20 83 97 122 104 90 17 142 70
139 141 -1 24 -2 23 -10 -10 -17 -72 -42 -95 -118 -112 -41 -9 -138 -82 -169
-129 -27 -39 -84 -66 -140 -66 -56 0 -228 37 -266 57 -37 20 -106 97 -106 119
0 7 7 22 14 31 37 46 96 128 96 135 0 5 26 6 57 3 55 -5 56 -5 39 14 -19 21
-66 24 -59 3 4 -8 0 -10 -11 -6 -9 3 -13 10 -10 15 3 5 -2 6 -11 2 -15 -5 -15
-3 -4 15 7 11 17 18 23 15 5 -4 6 -1 1 7 -6 10 -10 10 -20 -3 -10 -14 -12 -14
-23 1 -11 16 -11 16 -6 0 4 -10 2 -18 -4 -18 -12 0 -82 76 -82 89 0 41 143
287 160 276 5 -3 7 0 4 8 -3 8 0 18 7 23 8 5 10 3 4 -6 -5 -9 -4 -11 3 -6 7 4
12 15 12 26 0 22 183 210 206 210 11 0 7 -8 -15 -30 -16 -17 -33 -39 -36 -50
-3 -10 -15 -22 -26 -25 -10 -4 -19 -13 -19 -21 0 -8 -14 -39 -31 -69 -17 -30
-28 -59 -25 -64 4 -5 -7 -30 -22 -55 -18 -28 -28 -55 -25 -68 3 -15 -6 -35
-25 -58 l-30 -35 -26 24 c-14 14 -23 27 -19 30 5 3 8 12 9 19 3 38 5 43 13 38
5 -3 15 2 22 11 12 15 12 16 -1 8 -8 -5 -20 -10 -27 -10 -24 0 -87 -105 -63
-105 6 0 10 4 10 8 0 5 7 17 16 28 8 10 13 14 10 8 -9 -19 32 -62 65 -69 22
-5 36 -2 50 11 23 21 25 38 3 30 -14 -5 -15 -4 -4 9 7 8 17 12 24 8 6 -3 6 0
-1 8 -7 7 -13 29 -13 48 0 32 12 47 130 163 l130 128 30 -22 c17 -12 30 -26
30 -30 0 -16 -79 -117 -148 -188 -37 -38 -64 -70 -61 -70 18 0 149 145 205
226 66 97 71 108 54 119 -6 4 -7 -1 -3 -11 6 -15 4 -15 -20 1 -28 18 -27 41 2
30 12 -5 13 -4 4 6 -10 10 -16 9 -30 -2 -31 -24 -127 -103 -148 -122 -23 -21
-55 -40 -55 -33 0 6 33 41 133 144 73 74 81 96 15 42 -45 -38 -182 -199 -204
-241 -8 -17 -18 -29 -20 -26 -8 7 62 120 100 163 20 21 36 44 36 50 0 20 120
105 147 104 5 0 30 7 56 16 46 15 64 15 175 0 46 -6 151 -53 192 -85 25 -19
140 -96 268 -178 37 -24 81 -46 99 -49 28 -5 32 -10 35 -42 2 -19 9 -37 16
-40 11 -3 12 0 3 17 -14 26 -6 27 25 2 22 -17 23 -20 7 -25 -15 -4 -14 -4 2
-3 28 2 48 -12 36 -26 -17 -21 -60 -127 -52 -127 8 0 21 27 52 109 l10 24 30
-29 c17 -16 53 -61 80 -100 26 -40 59 -80 71 -90 13 -11 51 -53 85 -94 74 -90
183 -199 183 -182 0 6 -20 30 -45 53 -25 23 -43 45 -40 49 3 5 -11 18 -30 30
-44 27 -119 129 -106 144 5 6 12 29 15 51 l6 40 -11 -35 c-18 -63 -16 -61 -41
-49 -21 9 -109 128 -116 156 -2 7 18 45 45 85 60 91 59 88 36 88 -25 0 -35 10
-24 24 5 6 14 28 21 49 l12 38 20 -26 c11 -14 22 -25 26 -25 13 0 67 55 81 83
10 18 17 23 22 15 4 -7 9 0 11 18 2 16 3 -23 2 -86 -1 -66 2 -120 8 -127 6 -7
8 -20 4 -28 -3 -8 -1 -15 4 -15 6 0 10 7 10 16 0 11 5 14 16 10 9 -3 20 -6 25
-6 16 0 10 -26 -10 -44 -17 -15 -20 -15 -34 -2 -13 14 -16 14 -27 0 -11 -12
-10 -13 4 -8 41 16 8 -9 -69 -51 -47 -25 -85 -48 -85 -51 0 -6 61 26 131 66
28 17 54 28 57 25 4 -3 2 -9 -4 -13 -6 -4 -10 -29 -10 -55 1 -43 -2 -51 -26
-69 l-28 -19 -26 28 -25 28 22 -32 c13 -18 24 -33 25 -33 1 0 25 12 52 26 40
20 54 24 70 15 22 -12 35 -50 26 -78 -5 -15 -4 -16 5 -3 6 8 9 29 6 45 -3 17
-2 24 1 17 3 -6 9 -10 13 -8 4 3 25 7 48 9 l41 5 -13 -30 c-7 -17 -21 -36 -31
-42 -11 -6 -21 -20 -22 -31 -2 -11 -7 -22 -11 -25 -30 -21 -47 -145 -21 -156
13 -4 12 -8 -5 -21 -19 -15 -19 -15 5 -8 51 14 91 42 165 114 42 41 80 82 85
90 4 9 14 53 20 99 7 45 16 85 21 88 16 10 9 89 -11 132 -11 22 -20 46 -20 52
0 17 -45 101 -83 154 -34 47 -146 132 -211 161 -30 13 -30 13 -6 13 14 0 50
-3 80 -8 30 -5 74 -11 98 -15 50 -7 105 -32 180 -79 81 -51 110 -82 104 -112
-3 -18 -1 -23 9 -19 30 11 152 -215 133 -246 -3 -5 0 -9 5 -9 7 0 10 -21 7
-57 -4 -42 -3 -48 3 -23 8 37 9 32 24 -101 1 -8 -5 -26 -14 -40 -18 -28 -30
-59 -24 -59 3 0 14 15 25 33 l20 32 0 -50 c0 -28 -5 -56 -12 -63 -7 -7 -11
-42 -10 -88 1 -53 -3 -83 -13 -98 -8 -11 -15 -33 -15 -48 0 -14 -5 -39 -11
-55 -8 -22 -12 -25 -21 -13 -8 12 -9 12 -4 -3 3 -10 -13 -57 -40 -113 -25 -53
-43 -98 -40 -101 3 -4 25 35 47 86 23 50 44 89 46 87 8 -7 -76 -208 -107 -259
-17 -27 -30 -51 -30 -55 0 -13 -102 -102 -111 -97 -5 4 -8 2 -7 -4 3 -10 -26
-29 -112 -72 -25 -12 -55 -31 -67 -42 l-22 -20 -7 27 c-3 14 -3 43 1 64 4 20
6 117 6 214 0 159 -2 180 -21 210 -11 18 -20 42 -20 53 0 13 -3 16 -8 8 -5 -7
-19 7 -41 40 -19 29 -57 72 -84 97 -50 44 -50 45 -31 11 10 -18 28 -41 39 -50
11 -9 25 -24 30 -32 6 -9 31 -44 58 -79 26 -34 47 -68 47 -76 0 -8 8 -14 17
-14 13 0 14 -3 5 -12 -8 -8 -9 -48 -5 -138 6 -126 -8 -253 -29 -266 -5 -3 -3
-11 5 -17 24 -20 69 -149 75 -215 4 -56 3 -62 -12 -56 -11 4 -15 13 -11 23 7
19 -49 -33 -75 -69 l-18 -26 59 1 c35 0 58 4 56 10 -2 6 -22 9 -45 8 l-42 -2
20 21 c11 12 20 25 20 30 0 18 20 6 56 -32 28 -29 43 -38 58 -34 15 5 18 2 14
-14 -4 -14 0 -22 11 -25 11 -3 10 -5 -5 -6 -12 0 -25 -8 -28 -17 -4 -9 -2 -13
5 -8 6 4 53 6 103 6 56 0 81 2 66 7 -14 4 -46 7 -72 6 -33 -1 -44 2 -38 10 5
6 29 11 52 10 24 0 49 5 56 12 17 16 15 28 -2 14 -11 -10 -14 -7 -12 13 1 20
4 22 16 13 8 -6 6 -2 -4 11 -11 12 -17 24 -15 26 2 2 24 0 49 -4 25 -4 40 -8
33 -9 -20 -2 -8 -30 25 -54 17 -13 30 -26 28 -28 -3 -2 35 -4 82 -4 48 0 89 3
92 6 3 3 19 11 35 17 l30 12 -35 -6 c-91 -14 -180 -16 -180 -4 0 9 16 11 58 8
31 -3 66 -2 77 3 12 4 -19 8 -80 9 -124 2 -165 14 -81 24 32 3 63 3 70 -2 16
-12 146 -13 146 -2 0 6 -17 11 -37 11 -21 1 -51 3 -68 5 -16 2 -56 6 -88 10
-31 3 -55 10 -51 15 3 5 -16 10 -43 11 -40 1 -35 3 27 9 67 6 63 6 -32 4 -60
-1 -108 1 -108 5 0 4 10 7 23 7 12 0 45 1 72 3 49 3 49 3 -20 10 -114 12 -205
11 -205 -1 0 -7 10 -9 25 -7 14 3 25 1 25 -3 0 -5 15 -9 33 -9 17 0 41 -7 51
-15 18 -13 18 -16 2 -40 -9 -14 -20 -25 -24 -26 -42 -5 -62 -3 -62 4 0 5 -6 4
-13 -2 -11 -8 -19 -5 -35 12 -17 18 -20 31 -16 79 4 45 -1 70 -21 117 -14 33
-25 63 -25 65 0 3 42 25 93 50 140 68 205 132 270 266 47 94 104 252 152 419
10 37 15 97 15 200 -1 192 -31 349 -90 468 -98 199 -296 325 -532 339 -51 3
-106 7 -123 10 -26 4 -28 3 -15 -9 8 -8 35 -22 60 -31 142 -55 242 -142 304
-263 25 -51 26 -53 6 -53 -28 0 -25 -14 6 -31 31 -16 44 -46 44 -102 0 -59 -8
-68 -53 -58 -43 10 -44 8 -18 -52 12 -28 16 -48 10 -54 -6 -6 -4 -14 6 -23 19
-16 19 -30 -1 -58 -12 -18 -19 -20 -35 -12 -16 9 -19 7 -19 -9 0 -32 -15 -32
-45 -1 -32 33 -45 31 -45 -8 0 -34 -14 -57 -29 -47 -8 5 -10 -1 -5 -19 12 -50
10 -61 -13 -64 -21 -3 -23 1 -23 41 0 31 8 56 29 88 16 24 47 75 70 113 38 63
39 68 19 63 -13 -3 -52 -9 -87 -13 l-65 -7 23 38 c12 21 20 40 17 42 -2 2 -27
-12 -55 -32 l-51 -37 0 31 c0 36 19 70 68 122 38 41 38 40 -42 54 l-38 6 7
145 c4 79 5 144 2 144 -2 0 -37 -43 -78 -96 l-73 -96 -19 51 c-11 28 -23 51
-26 51 -4 0 -17 -38 -30 -84 -22 -78 -26 -84 -52 -88 -26 -4 -28 -2 -23 21 4
14 12 35 18 46 8 13 10 53 8 112 l-4 93 -41 -34 c-23 -19 -69 -54 -102 -79
l-60 -45 -5 46 -5 46 -36 -42 c-35 -41 -69 -55 -69 -29 0 19 41 140 51 152 32
34 -43 6 -110 -42 l-24 -17 5 37 c2 20 0 37 -4 37 -4 0 -31 -15 -60 -34 -29
-18 -68 -37 -85 -40 -35 -8 -39 0 -34 62 2 20 -2 22 -24 16 -25 -6 -25 -6 -19
36 7 41 6 42 -17 35 -13 -4 -44 -20 -68 -35 -35 -22 -50 -26 -68 -19 -14 5
-35 9 -48 9 -20 0 -24 6 -27 34 l-3 34 -50 -39z m251 -28 c-4 -5 6 -23 20 -40
30 -36 26 -37 -41 -7 l-50 23 30 16 c34 18 49 21 41 8z m234 -81 c-12 -23 -6
-40 14 -40 7 0 30 14 51 30 53 42 67 38 19 -6 -28 -26 -32 -32 -12 -20 34 20
38 20 38 1 0 -17 -30 -35 -59 -35 -12 0 -21 -4 -21 -8 0 -5 -11 -14 -24 -21
-26 -15 -68 0 -63 22 1 7 -7 11 -19 9 -12 -1 -26 4 -33 11 -9 12 -5 17 21 28
18 7 44 21 57 31 31 24 44 23 31 -2z m-705 -10 c3 -5 1 -10 -4 -10 -6 0 -11 5
-11 10 0 6 2 10 4 10 3 0 8 -4 11 -10z m1102 -52 c-2 -39 -7 -45 -67 -90 -36
-26 -74 -52 -85 -57 -11 -5 -14 -10 -8 -10 7 -1 47 24 89 54 43 30 80 52 83
49 3 -4 0 -9 -7 -11 -6 -3 -10 -9 -6 -14 3 -5 -2 -32 -11 -60 -18 -53 -13 -68
22 -69 6 0 19 -3 29 -7 12 -4 15 -3 10 5 -5 8 2 12 20 12 l27 0 -20 -22 c-11
-13 -34 -47 -50 -75 l-29 -53 -34 35 c-19 19 -51 47 -71 61 -20 14 -39 34 -42
44 -3 12 -18 21 -41 25 -39 8 -43 13 -23 35 6 8 3 7 -8 -2 -19 -15 -23 -15
-62 9 -47 27 -49 31 -30 56 19 26 43 6 27 -22 -6 -13 8 -3 31 20 40 40 43 41
51 23 5 -11 18 -25 28 -32 15 -9 20 -8 24 6 3 9 25 29 48 44 24 15 56 40 72
57 17 17 31 31 33 31 1 0 2 -19 0 -42z m-957 -37 c0 -3 -7 -14 -15 -24 -13
-18 -15 -18 -44 4 -39 28 -25 48 15 24 l29 -17 -23 19 c-13 10 -20 22 -16 25
7 7 54 -20 54 -31z m640 -3 c-1 -24 -29 -82 -30 -61 0 7 -12 19 -26 26 l-26
14 27 21 c36 28 55 28 55 0z m597 -50 c-3 -7 -5 -2 -5 12 0 14 2 19 5 13 2 -7
2 -19 0 -25z m-1477 -62 c0 -2 -8 -10 -17 -17 -16 -13 -17 -12 -4 4 13 16 21
21 21 13z m1848 -269 c2 -10 1 -26 -3 -35 -5 -15 -7 -15 -14 -2 -5 8 -12 26
-16 38 -6 20 -4 23 11 20 11 -2 20 -11 22 -21z m-1984 -4 c-10 -7 -22 -13 -27
-13 -5 0 -4 6 2 13 6 8 18 14 27 14 15 0 14 -2 -2 -14z m1866 -222 c0 -10 -13
-27 -30 -39 l-30 -23 0 25 c0 14 8 30 18 35 9 6 13 11 9 11 -5 0 -6 4 -2 10 9
14 35 0 35 -19z m-1520 -256 c0 -8 -4 -15 -10 -15 -5 0 -7 7 -4 15 4 8 8 15
10 15 2 0 4 -7 4 -15z m-50 -63 c0 -5 16 -27 35 -49 49 -57 48 -92 -5 -128
-23 -16 -48 -40 -57 -55 -11 -19 -24 -27 -42 -27 -14 1 -39 -3 -55 -8 -25 -7
-28 -6 -23 9 8 20 -3 21 -29 1 -16 -13 -16 -14 -1 -9 9 3 17 4 17 0 0 -3 -18
-10 -40 -16 -35 -10 -40 -14 -40 -41 0 -26 -3 -29 -23 -24 -18 5 -26 1 -36
-21 l-12 -27 -16 24 c-9 13 -18 26 -20 29 -3 3 -9 -3 -14 -13 -13 -23 -29 -12
-29 20 0 79 61 170 144 213 l45 24 53 -22 c29 -12 60 -22 68 -22 21 0 -32 27
-69 35 -35 7 -35 9 -20 54 10 28 15 31 52 31 23 1 53 7 67 15 28 16 50 19 50
7z m130 -327 c19 -38 50 -90 69 -115 20 -24 35 -48 33 -53 -1 -5 2 -6 6 -3 5
3 22 -7 38 -21 47 -44 113 -93 127 -93 6 -1 0 -8 -15 -16 -16 -8 -28 -20 -28
-26 0 -6 -3 -8 -7 -4 -4 4 -15 -24 -24 -61 -10 -37 -23 -84 -31 -104 l-14 -37
-27 24 c-16 13 -25 29 -22 34 3 6 3 10 -2 10 -9 -1 -63 -83 -63 -96 0 -5 9 6
20 24 32 52 66 40 104 -36 l17 -32 -61 0 c-33 0 -60 4 -60 9 0 16 -87 -9 -192
-54 -15 -6 -18 -2 -18 19 0 37 35 125 61 152 13 13 18 24 11 24 -16 0 -47 -49
-68 -106 -16 -46 -21 -52 -61 -64 -24 -7 -46 -10 -50 -7 -3 3 -9 41 -13 84 -4
43 -9 65 -10 48 -4 -41 -4 -45 3 -87 l6 -38 -90 0 -90 0 22 40 c32 57 80 112
93 107 8 -3 10 35 9 137 -2 131 -1 144 20 176 12 19 29 48 37 63 10 21 16 24
22 14 4 -8 20 -22 35 -31 l28 -17 -27 25 c-26 24 -38 43 -19 32 4 -3 6 5 4 19
-6 29 36 93 114 173 l56 57 12 -50 c6 -27 26 -81 45 -120z m1617 -554 c0 -28
-4 -38 -12 -34 -7 2 -16 0 -20 -6 -10 -16 -25 -13 -25 5 0 9 6 14 13 11 9 -3
18 8 26 29 7 19 14 34 15 34 2 0 3 -18 3 -39z m146 12 c-7 -2 -19 -2 -25 0 -7
3 -2 5 12 5 14 0 19 -2 13 -5z m-219 -54 c-7 -11 -34 -12 -34 -1 0 14 11 21
26 15 8 -3 11 -9 8 -14z m233 5 c-3 -3 -12 -4 -19 -1 -8 3 -5 6 6 6 11 1 17
-2 13 -5z m-1944 -54 c-5 -18 -12 -20 -82 -15 -42 2 -89 9 -106 14 -27 8 -25
9 26 10 30 1 60 -4 65 -9 7 -7 23 -6 50 4 52 19 53 19 47 -4z m1737 -30 c11
-7 4 -10 -25 -10 -29 0 -36 3 -25 10 8 5 20 10 25 10 6 0 17 -5 25 -10z m-917
-37 c-7 -2 -19 -2 -25 0 -7 3 -2 5 12 5 14 0 19 -2 13 -5z"/>
<path d="M1391 2151 c-9 -16 -8 -19 6 -17 20 3 28 21 14 30 -5 4 -15 -2 -20
-13z"/>
<path d="M1784 2039 c-19 -22 -19 -22 4 -10 12 6 22 16 22 21 0 15 -5 12 -26
-11z"/>
<path d="M1627 2027 c-3 -8 1 -14 8 -14 7 0 11 6 8 14 -3 7 -6 13 -8 13 -2 0
-5 -6 -8 -13z"/>
<path d="M1726 1995 c-11 -8 -16 -15 -10 -15 5 0 18 7 28 15 11 8 16 15 10 15
-5 0 -18 -7 -28 -15z"/>
<path d="M1817 1909 c7 -7 15 -10 18 -7 3 3 -2 9 -12 12 -14 6 -15 5 -6 -5z"/>
<path d="M690 990 c6 -11 13 -20 16 -20 2 0 0 9 -6 20 -6 11 -13 20 -16 20 -2
0 0 -9 6 -20z"/>
<path d="M650 929 c0 -5 5 -7 10 -4 6 3 10 8 10 11 0 2 -4 4 -10 4 -5 0 -10
-5 -10 -11z"/>
<path d="M730 730 c19 -17 50 -39 68 -50 32 -19 32 -19 32 1 0 11 5 17 10 14
6 -3 10 -1 10 4 0 16 -18 13 -27 -3 -6 -12 -20 -7 -68 25 -50 34 -54 35 -25 9z"/>
<path d="M860 660 c0 -16 4 -30 8 -30 5 0 7 14 4 30 -2 17 -6 30 -8 30 -2 0
-4 -13 -4 -30z"/>
<path d="M841 644 c0 -11 3 -14 6 -6 3 7 2 16 -1 19 -3 4 -6 -2 -5 -13z"/>
<path d="M870 610 c0 -5 10 -15 23 -21 22 -12 22 -12 3 10 -21 23 -26 26 -26
11z"/>
<path d="M1054 602 c23 -26 23 -26 23 -7 0 8 -3 13 -5 10 -3 -3 -12 1 -21 7
-10 8 -9 4 3 -10z"/>
<path d="M892 561 c13 -21 48 -29 48 -11 0 6 -3 9 -7 8 -5 -1 -18 3 -31 10
-22 13 -22 12 -10 -7z"/>
<path d="M970 551 c14 -11 30 -21 35 -21 11 0 -7 14 -40 31 -13 7 -12 3 5 -10z"/>
<path d="M1060 566 c0 -2 7 -7 16 -10 8 -3 12 -2 9 4 -6 10 -25 14 -25 6z"/>
<path d="M1030 549 c0 -5 5 -7 10 -4 6 3 10 8 10 11 0 2 -4 4 -10 4 -5 0 -10
-5 -10 -11z"/>
<path d="M1030 530 c-11 -7 -1 -10 35 -10 28 0 57 5 65 10 11 7 1 10 -35 10
-27 0 -57 -5 -65 -10z"/>
<path d="M920 520 c8 -5 23 -10 33 -10 10 0 36 -9 57 -20 34 -17 40 -18 40 -5
0 8 -8 15 -18 15 -10 0 -27 7 -38 15 -10 8 -35 14 -54 15 -26 0 -31 -3 -20
-10z"/>
<path d="M990 470 c0 -12 60 -43 68 -36 3 3 3 7 1 9 -35 21 -69 34 -69 27z"/>
<path d="M1062 410 c-13 -17 -17 -27 -8 -24 11 4 41 54 33 54 -2 0 -13 -13
-25 -30z"/>
<path d="M1000 415 c0 -18 27 -27 33 -10 3 7 -3 15 -14 18 -11 3 -19 0 -19 -8z"/>
<path d="M678 399 c13 -5 21 -13 18 -17 -3 -5 8 -22 24 -37 21 -20 28 -35 24
-48 -4 -13 -2 -17 5 -13 18 12 13 31 -19 61 -31 30 -33 48 -2 24 10 -8 5 -2
-10 14 -16 15 -36 27 -46 26 -12 0 -11 -3 6 -10z"/>
<path d="M590 386 c0 -2 8 -10 18 -17 15 -13 16 -12 3 4 -13 16 -21 21 -21 13z"/>
<path d="M860 383 c0 -5 9 -18 20 -28 11 -10 20 -16 20 -13 0 3 -9 15 -20 28
-11 13 -20 19 -20 13z"/>
<path d="M902 310 c0 -14 2 -19 5 -12 2 6 2 18 0 25 -3 6 -5 1 -5 -13z"/>
<path d="M881 264 c0 -11 3 -14 6 -6 3 7 2 16 -1 19 -3 4 -6 -2 -5 -13z"/>
<path d="M1000 2236 c0 -2 7 -7 16 -10 8 -3 12 -2 9 4 -6 10 -25 14 -25 6z"/>
<path d="M1142 2144 c10 -10 20 -16 22 -13 3 3 -5 11 -17 18 -21 13 -21 12 -5
-5z"/>
<path d="M1140 2069 c-17 -24 -38 -43 -46 -41 -9 2 -21 -11 -29 -33 -15 -34
-16 -35 -38 -20 -23 15 -24 14 -41 -40 -33 -107 -68 -169 -128 -227 -32 -32
-71 -64 -88 -73 -16 -9 -30 -20 -30 -26 0 -6 -4 -7 -10 -4 -5 3 -10 2 -10 -4
0 -6 -10 -15 -21 -22 -15 -8 -19 -8 -15 0 5 8 0 8 -18 0 -14 -7 -23 -15 -20
-20 4 -7 -24 -5 -99 6 -17 3 -26 1 -22 -5 3 -6 2 -10 -3 -10 -6 0 -13 12 -16
26 -4 15 -9 24 -12 21 -3 -2 2 -23 11 -45 18 -45 57 -62 93 -43 15 8 23 7 32
-4 11 -13 10 -14 -6 -9 -18 5 -18 5 0 -10 11 -9 25 -16 30 -17 6 0 -1 -6 -15
-12 -28 -13 -90 -65 -104 -88 -5 -7 11 3 36 24 26 20 51 37 57 37 6 0 12 5 14
12 3 7 32 13 74 16 121 6 245 69 281 140 19 38 20 68 2 56 -5 -3 -9 3 -9 14 0
10 -12 29 -27 43 -16 13 -22 17 -15 9 6 -8 12 -18 12 -23 0 -4 -6 -5 -12 -1
-8 4 -10 3 -5 -2 5 -5 14 -9 20 -9 7 0 13 -20 15 -50 2 -43 -1 -54 -23 -75
-33 -31 -44 -16 -29 40 10 36 13 40 13 17 1 -16 -4 -38 -10 -50 -10 -21 -10
-21 5 -3 24 30 18 104 -8 89 -6 -3 -8 -3 -4 2 11 11 -10 45 -28 45 -23 0 41
79 119 146 37 32 67 62 67 68 0 8 -25 -10 -60 -44 -3 -3 -20 -18 -39 -35 l-33
-30 14 30 c9 17 23 54 32 82 16 48 19 52 38 42 23 -12 21 -14 42 28 9 18 22
30 29 28 6 -2 25 15 41 38 l29 42 14 -48 c7 -26 17 -47 21 -47 20 2 102 27
109 34 8 8 -31 1 -79 -14 -26 -8 -28 -7 -39 33 -7 23 -16 46 -20 51 -4 4 -22
-11 -39 -35z m-266 -421 c16 -23 21 -73 10 -102 -18 -46 -153 -86 -205 -60
-54 27 -52 37 15 72 34 18 80 50 101 72 45 46 58 49 79 18z m34 -23 c-3 -3 -9
2 -12 12 -6 14 -5 15 5 6 7 -7 10 -15 7 -18z m-358 -86 c0 -8 4 -8 13 -2 17
13 59 14 51 2 -11 -19 -55 -30 -70 -18 -16 13 -18 29 -4 29 6 0 10 -5 10 -11z
m370 -3 c0 -2 -12 -11 -27 -20 l-28 -17 24 20 c23 21 31 25 31 17z"/>
<path d="M1998 2013 c-3 -10 2 -25 9 -34 28 -33 20 -62 -29 -108 -26 -24 -65
-49 -85 -57 -32 -11 -34 -13 -13 -14 17 0 47 18 85 50 56 48 95 59 58 17 -18
-20 -18 -20 10 -2 15 9 27 25 27 34 0 14 -2 14 -10 1 -5 -8 -10 -13 -11 -10 0
3 -2 19 -4 35 -10 83 -29 127 -37 88z"/>
<path d="M2067 2009 c4 -13 8 -18 11 -10 2 7 -1 18 -6 23 -8 8 -9 4 -5 -13z"/>
<path d="M2624 2015 c-3 -8 -4 -20 -2 -27 3 -7 7 -1 10 15 6 29 1 36 -8 12z"/>
<path d="M1311 1986 c-1 -18 8 -39 21 -53 26 -28 12 -30 -52 -8 -23 8 -66 14
-94 13 l-51 -2 50 -3 c28 -2 59 -7 70 -12 11 -5 34 -14 50 -21 17 -7 75 -14
130 -16 55 -1 103 -3 106 -3 4 -1 5 -22 2 -48 l-4 -48 21 50 c36 88 41 81 -65
71 l-95 -9 -38 30 c-21 17 -40 43 -43 59 l-7 29 -1 -29z"/>
<path d="M2601 1984 c0 -11 3 -14 6 -6 3 7 2 16 -1 19 -3 4 -6 -2 -5 -13z"/>
<path d="M2062 1955 c0 -16 2 -22 5 -12 2 9 2 23 0 30 -3 6 -5 -1 -5 -18z"/>
<path d="M1108 1928 c-15 -15 -16 -18 -3 -18 9 0 18 7 22 15 8 23 0 24 -19 3z"/>
<path d="M2613 1900 c0 -25 2 -35 4 -22 2 12 2 32 0 45 -2 12 -4 2 -4 -23z"/>
<path d="M1980 1915 c-7 -9 -11 -18 -8 -20 3 -3 11 1 18 10 7 9 11 18 8 20 -3
3 -11 -1 -18 -10z"/>
<path d="M435 1900 c-3 -5 -3 -10 1 -10 3 0 -2 -12 -12 -27 -13 -20 -13 -25
-2 -16 8 7 17 11 20 8 2 -3 4 9 4 25 0 32 -1 35 -11 20z"/>
<path d="M2070 1899 c0 -5 5 -7 10 -4 6 3 10 8 10 11 0 2 -4 4 -10 4 -5 0 -10
-5 -10 -11z"/>
<path d="M688 1833 c-40 -38 -74 -71 -76 -75 -12 -27 -42 -49 -71 -53 -32 -4
-69 -25 -44 -25 8 0 9 -9 3 -30 -11 -39 -2 -39 12 0 7 21 22 36 46 46 20 8 39
20 43 25 3 6 44 49 89 95 46 46 80 84 77 84 -4 0 -39 -30 -79 -67z"/>
<path d="M2116 1863 c-6 -14 -5 -15 5 -6 7 7 10 15 7 18 -3 3 -9 -2 -12 -12z"/>
<path d="M1161 1843 c-36 -15 -89 -51 -133 -91 l-27 -25 -27 29 c-14 16 -21
22 -15 13 6 -9 7 -20 3 -24 -4 -5 -2 -5 5 -1 7 4 14 -2 18 -15 7 -21 7 -21 28
-1 26 23 144 92 158 92 5 0 9 -6 10 -12 0 -7 5 0 10 16 4 17 7 31 6 32 -1 0
-17 -5 -36 -13z"/>
<path d="M2551 1834 c0 -11 3 -14 6 -6 3 7 2 16 -1 19 -3 4 -6 -2 -5 -13z"/>
<path d="M2601 1833 c0 -13 -5 -23 -10 -23 -5 0 -12 -8 -15 -17 -6 -15 -3 -14
14 3 13 13 20 29 17 40 -4 16 -5 15 -6 -3z"/>
<path d="M1996 1823 c-6 -14 -5 -15 5 -6 7 7 10 15 7 18 -3 3 -9 -2 -12 -12z"/>
<path d="M1265 1810 c-61 -6 -64 -7 -22 -8 43 -2 48 -4 42 -22 -6 -18 -2 -20
37 -20 24 0 54 -3 67 -7 23 -6 23 -7 5 -14 -16 -7 -17 -8 -1 -8 9 -1 17 -7 17
-13 0 -7 9 -2 20 12 17 23 18 26 2 32 -9 4 -41 7 -71 7 l-53 1 16 25 c9 14 15
24 14 23 -2 -1 -34 -4 -73 -8z"/>
<path d="M414 1774 c-4 -14 -3 -29 2 -34 5 -5 9 6 10 26 1 41 -3 43 -12 8z"/>
<path d="M2060 1785 c-14 -8 -20 -14 -14 -15 5 0 19 7 30 15 24 18 16 19 -16
0z"/>
<path d="M569 1753 l-24 -28 28 24 c25 23 32 31 24 31 -2 0 -14 -12 -28 -27z"/>
<path d="M1539 1747 c8 -11 5 -17 -16 -26 -25 -11 -95 -62 -118 -85 -5 -5 3
-1 19 9 32 19 40 21 126 25 47 3 49 4 17 7 -34 4 -37 6 -25 21 9 12 2 10 -26
-6 -21 -13 -40 -21 -43 -19 -5 6 94 67 110 68 15 1 -23 17 -42 18 -10 1 -11
-2 -2 -12z"/>
<path d="M1590 1729 c-19 -11 -26 -17 -15 -13 11 3 26 7 33 7 6 0 12 4 12 9 0
5 8 7 18 4 9 -3 23 -2 30 3 29 18 -45 8 -78 -10z"/>
<path d="M1442 1700 c-18 -17 -29 -30 -24 -30 5 0 21 14 37 30 37 38 30 38
-13 0z"/>
<path d="M1660 1720 c0 -5 5 -10 10 -10 6 0 10 5 10 10 0 6 -4 10 -10 10 -5 0
-10 -4 -10 -10z"/>
<path d="M2144 1685 c-3 -8 -4 -20 -2 -27 3 -7 7 -1 10 15 6 29 1 36 -8 12z"/>
<path d="M414 1646 c-3 -8 -4 -23 -1 -33 3 -12 5 -9 6 9 0 14 7 29 14 31 9 4
9 6 -1 6 -7 1 -15 -5 -18 -13z"/>
<path d="M961 1644 c0 -11 3 -14 6 -6 3 7 2 16 -1 19 -3 4 -6 -2 -5 -13z"/>
<path d="M1050 1651 c0 -6 4 -13 10 -16 6 -3 7 1 4 9 -7 18 -14 21 -14 7z"/>
<path d="M2748 1588 c-18 -29 -37 -59 -41 -65 -5 -9 -3 -11 7 -7 8 3 18 14 21
25 4 10 11 19 16 19 5 0 9 8 9 18 0 9 9 23 20 30 21 13 27 32 11 32 -5 0 -24
-24 -43 -52z"/>
<path d="M1019 1564 c-24 -46 -27 -48 -126 -83 -97 -34 -150 -60 -84 -41 18 5
33 5 36 -1 4 -5 11 -9 18 -9 6 0 3 6 -8 13 -17 13 -16 14 11 20 16 3 54 15 85
26 49 19 58 26 77 68 28 62 22 66 -9 7z"/>
<path d="M1131 1553 c-1 -34 -5 -65 -11 -68 -13 -8 -13 -25 0 -25 18 0 33 75
22 116 -10 39 -10 38 -11 -23z"/>
<path d="M1236 1565 c6 -35 8 -53 6 -77 -2 -15 -6 -16 -27 -6 -14 6 -25 17
-25 25 0 7 -7 13 -17 13 -14 0 -14 -2 3 -21 10 -12 27 -24 38 -28 17 -7 17 -8
1 -25 -17 -16 -19 -16 -40 4 -13 12 -25 17 -29 12 -3 -5 6 -14 20 -21 14 -6
22 -16 19 -21 -3 -5 0 -7 8 -4 8 3 20 -2 27 -11 7 -8 20 -15 29 -14 13 0 14 1
1 6 -38 14 -40 25 -14 56 22 27 25 36 19 76 -4 25 -11 50 -16 56 -6 6 -7 -2
-3 -20z"/>
<path d="M1431 1563 c2 -19 -4 -36 -19 -51 -36 -36 -25 -42 13 -6 41 38 94 52
133 35 24 -10 25 -10 10 2 -10 8 -18 17 -18 20 0 3 8 8 18 10 11 3 10 3 -3 2
-11 -2 -41 -10 -67 -18 -45 -14 -48 -14 -48 3 0 11 -5 22 -11 26 -7 4 -10 -4
-8 -23z"/>
<path d="M1091 1544 c0 -11 3 -14 6 -6 3 7 2 16 -1 19 -3 4 -6 -2 -5 -13z"/>
<path d="M1306 1520 c4 -19 7 -39 8 -45 0 -5 -11 -9 -26 -8 -16 1 -28 -2 -28
-8 0 -5 3 -8 8 -8 33 6 44 -19 17 -41 -8 -7 -15 -17 -15 -23 0 -5 9 -2 20 8
11 10 20 26 20 36 0 10 4 21 10 24 10 6 3 60 -11 85 -5 9 -6 1 -3 -20z"/>
<path d="M1558 1493 c7 -3 16 -2 19 1 4 3 -2 6 -13 5 -11 0 -14 -3 -6 -6z"/>
<path d="M454 1475 c-5 -12 -9 -13 -21 -4 -12 10 -22 4 -56 -32 l-42 -44 40
38 c38 34 63 49 51 28 -3 -5 8 -7 24 -6 17 1 33 -2 36 -7 3 -5 12 -4 20 3 11
9 14 8 14 -2 0 -10 3 -10 12 -1 15 15 32 16 23 1 -4 -6 2 -5 14 3 19 12 19 13
3 19 -9 4 -21 3 -26 -2 -13 -12 -29 -11 -21 1 3 6 1 10 -4 10 -6 0 -11 -5 -11
-11 0 -5 -5 -7 -10 -4 -6 4 -7 12 -3 18 3 7 -4 3 -17 -8 -20 -17 -23 -18 -17
-2 4 9 4 17 1 17 -2 0 -7 -7 -10 -15z"/>
<path d="M1482 1453 c-20 -20 -26 -28 -12 -17 14 10 27 22 30 25 3 3 14 11 25
17 11 6 14 12 7 12 -7 0 -29 -16 -50 -37z"/>
<path d="M2780 1480 c0 -5 5 -10 10 -10 6 0 10 5 10 10 0 6 -4 10 -10 10 -5 0
-10 -4 -10 -10z"/>
<path d="M2396 1453 c-6 -14 -5 -15 5 -6 7 7 10 15 7 18 -3 3 -9 -2 -12 -12z"/>
<path d="M655 1423 c-16 -8 -48 -32 -70 -53 -31 -30 -47 -38 -70 -36 -108 11
-162 20 -174 30 -11 9 -13 8 -9 -4 5 -16 43 -25 147 -35 62 -6 64 -6 100 28
20 18 53 44 74 56 20 13 37 25 37 27 0 6 -1 5 -35 -13z"/>
<path d="M2158 1423 c7 -3 16 -2 19 1 4 3 -2 6 -13 5 -11 0 -14 -3 -6 -6z"/>
<path d="M2735 1390 c-21 -22 -37 -41 -34 -43 2 -2 21 16 43 40 49 54 43 56
-9 3z"/>
<path d="M2618 1393 c-30 -35 -101 -136 -91 -130 11 7 115 147 109 147 -1 0
-10 -8 -18 -17z"/>
<path d="M1636 1375 c-16 -13 -36 -21 -45 -19 -9 3 2 -5 25 -17 63 -33 71 -53
40 -98 -14 -20 -57 -65 -96 -99 -38 -35 -70 -68 -70 -74 0 -6 16 6 35 27 20
20 38 35 41 32 6 -6 80 73 113 121 l23 33 -38 36 -39 35 24 19 c13 11 22 21
20 23 -2 2 -17 -6 -33 -19z"/>
<path d="M856 1378 c3 -4 9 -8 15 -8 5 0 9 4 9 8 0 5 -7 9 -15 9 -8 0 -12 -4
-9 -9z"/>
<path d="M1314 1363 c8 -16 32 -45 54 -67 l40 -38 -25 -42 c-14 -22 -50 -60
-79 -84 -51 -40 -54 -46 -54 -87 0 -55 11 -62 39 -25 12 17 18 30 13 30 -5 0
-17 -10 -25 -22 -16 -23 -16 -22 -16 15 -1 23 5 42 17 52 9 8 36 31 59 51 24
20 53 57 65 82 13 26 43 66 68 91 25 24 35 39 24 33 -12 -6 -36 -28 -54 -48
l-33 -38 -38 45 c-21 24 -41 52 -44 62 -4 9 -11 17 -16 17 -5 0 -3 -12 5 -27z"/>
<path d="M1372 1355 c21 -22 39 -37 41 -34 2 2 -15 19 -37 38 l-41 35 37 -39z"/>
<path d="M2242 1370 c3 -8 15 -58 28 -110 13 -52 27 -99 31 -104 9 -10 7 -1
-21 119 -12 50 -27 95 -32 100 -8 7 -9 5 -6 -5z"/>
<path d="M602 1353 c-11 -10 -23 -29 -27 -43 -6 -25 -6 -25 13 3 10 15 27 34
38 42 10 8 14 15 8 15 -7 0 -21 -8 -32 -17z"/>
<path d="M1533 1363 c9 -2 23 -2 30 0 6 3 -1 5 -18 5 -16 0 -22 -2 -12 -5z"/>
<path d="M2336 1328 c-4 -19 -2 -36 5 -42 9 -8 10 -8 5 1 -3 6 -2 23 4 37 5
14 5 28 1 30 -5 3 -11 -9 -15 -26z"/>
<path d="M1040 1326 c0 -3 9 -10 20 -16 11 -6 20 -8 20 -6 0 3 -9 10 -20 16
-11 6 -20 8 -20 6z"/>
<path d="M2218 1305 c2 -14 8 -27 12 -30 4 -2 5 7 2 20 -2 14 -8 27 -12 30 -4
2 -5 -7 -2 -20z"/>
<path d="M2645 1288 l-40 -43 43 40 c39 36 47 45 39 45 -2 0 -21 -19 -42 -42z"/>
<path d="M982 1237 c-20 -47 -20 -50 -2 -27 22 28 43 80 32 80 -4 0 -17 -24
-30 -53z"/>
<path d="M1131 1254 c0 -11 3 -14 6 -6 3 7 2 16 -1 19 -3 4 -6 -2 -5 -13z"/>
<path d="M1301 1249 c-13 -10 -19 -19 -15 -19 13 1 48 29 43 34 -2 2 -15 -4
-28 -15z"/>
<path d="M2360 1266 c0 -2 8 -10 18 -17 15 -13 16 -12 3 4 -13 16 -21 21 -21
13z"/>
<path d="M2580 1238 c-12 -22 -12 -22 6 -6 10 10 15 20 12 24 -4 3 -12 -5 -18
-18z"/>
<path d="M2241 1234 c0 -11 3 -14 6 -6 3 7 2 16 -1 19 -3 4 -6 -2 -5 -13z"/>
<path d="M2489 1233 c-13 -16 -12 -17 4 -4 16 13 21 21 13 21 -2 0 -10 -8 -17
-17z"/>
<path d="M1905 1229 c-15 -6 -11 -8 18 -8 20 -1 37 1 37 3 0 9 -37 12 -55 5z"/>
<path d="M2400 1232 c0 -4 10 -13 23 -21 22 -14 22 -14 3 8 -20 22 -26 25 -26
13z"/>
<path d="M1240 1220 c-8 -5 -10 -10 -5 -10 6 0 17 5 25 10 8 5 11 10 5 10 -5
0 -17 -5 -25 -10z"/>
<path d="M1855 1220 c-16 -7 -17 -9 -3 -9 9 -1 20 4 23 9 7 11 7 11 -20 0z"/>
<path d="M1117 1213 c-9 -9 -9 -43 1 -43 4 0 7 11 7 25 0 14 0 25 -1 25 0 0
-4 -3 -7 -7z"/>
<path d="M2528 1199 c-29 -22 -36 -39 -16 -39 6 0 9 3 5 6 -3 3 6 17 21 30 33
29 27 31 -10 3z"/>
<path d="M2228 1183 c5 -21 7 -23 10 -9 2 10 0 22 -6 28 -6 6 -7 0 -4 -19z"/>
<path d="M1160 1185 c-14 -8 -19 -14 -10 -14 8 0 24 6 34 14 25 19 9 19 -24 0z"/>
<path d="M1855 1175 c-39 -17 -21 -18 25 0 19 7 28 14 20 14 -8 0 -28 -6 -45
-14z"/>
<path d="M1885 1140 c-25 -11 1 -11 35 0 20 6 21 8 5 8 -11 0 -29 -3 -40 -8z"/>
<path d="M1958 1143 c7 -3 19 -18 28 -35 8 -16 18 -27 21 -25 8 9 -37 67 -50
66 -8 0 -8 -2 1 -6z"/>
<path d="M964 1123 c15 -18 22 -20 32 -12 8 6 11 15 8 21 -4 5 -11 5 -18 -1
-9 -7 -17 -7 -26 2 -8 6 -6 2 4 -10z"/>
<path d="M2301 1124 c0 -11 3 -14 6 -6 3 7 2 16 -1 19 -3 4 -6 -2 -5 -13z"/>
<path d="M1793 1097 c20 -21 40 -37 43 -37 11 0 -18 30 -50 52 -28 19 -27 17
7 -15z"/>
<path d="M940 1089 c-11 -19 -10 -20 10 -9 11 6 18 15 15 21 -9 13 -13 11 -25
-12z"/>
<path d="M1705 1100 c-12 -4 -27 -16 -35 -26 -14 -16 -13 -16 5 -6 24 13 62
41 55 41 -3 0 -14 -4 -25 -9z"/>
<path d="M1878 1086 c12 -15 19 -33 15 -40 -3 -6 0 -5 8 2 11 10 8 17 -15 40
l-29 27 21 -29z"/>
<path d="M915 1040 c-4 -11 -10 -18 -14 -16 -4 3 -5 -9 -2 -27 l5 -32 7 32 c3
18 12 40 19 48 8 9 8 15 2 15 -6 0 -14 -9 -17 -20z"/>
<path d="M1613 1035 c-21 -15 -69 -83 -62 -89 2 -2 23 21 47 50 46 58 48 62
15 39z"/>
<path d="M1905 1034 c-32 -16 -26 -15 50 6 27 7 28 8 5 8 -14 0 -38 -6 -55
-14z"/>
<path d="M1960 1025 c0 -3 9 -23 20 -45 27 -52 25 -58 -11 -62 l-31 -3 23 -20
c18 -15 20 -15 10 -2 -12 15 -11 17 8 17 32 0 35 22 11 74 -18 41 -30 57 -30
41z"/>
<path d="M1827 1014 c-3 -4 -17 -8 -30 -9 -29 -3 -84 -38 -69 -43 6 -2 30 7
54 19 24 12 54 25 68 30 22 6 22 7 4 8 -11 1 -24 -2 -27 -5z"/>
<path d="M1096 983 c-6 -14 -5 -15 5 -6 7 7 10 15 7 18 -3 3 -9 -2 -12 -12z"/>
<path d="M1310 976 c0 -9 5 -16 10 -16 6 0 10 4 10 9 0 6 -4 13 -10 16 -5 3
-10 -1 -10 -9z"/>
<path d="M1400 926 c-7 -21 -21 -47 -31 -57 -11 -11 -19 -25 -19 -33 0 -23 19
-29 26 -9 3 10 15 40 26 66 10 27 17 54 15 60 -2 7 -9 -5 -17 -27z"/>
<path d="M1210 926 c0 -2 8 -10 18 -17 15 -13 16 -12 3 4 -13 16 -21 21 -21
13z"/>
<path d="M1551 914 c0 -11 3 -14 6 -6 3 7 2 16 -1 19 -3 4 -6 -2 -5 -13z"/>
<path d="M2625 904 c-9 -14 -15 -27 -13 -30 2 -2 12 10 22 26 21 37 15 40 -9
4z"/>
<path d="M1336 874 c-4 -9 -4 -19 -1 -22 2 -3 7 3 11 12 4 9 4 19 1 22 -2 3
-7 -3 -11 -12z"/>
<path d="M1578 874 c-5 -4 -8 -23 -7 -43 0 -34 1 -34 10 -11 11 27 8 66 -3 54z"/>
<path d="M1542 845 c0 -16 2 -22 5 -12 2 9 2 23 0 30 -3 6 -5 -1 -5 -18z"/>
<path d="M1409 843 c-8 -10 -21 -30 -28 -45 -12 -24 -16 -25 -25 -12 -10 13
-12 13 -12 -5 0 -11 4 -17 8 -15 14 9 9 -11 -8 -32 -15 -19 -16 -19 -10 1 6
19 6 19 -9 1 -8 -10 -12 -23 -9 -28 7 -11 -25 -50 -35 -43 -4 2 -7 -5 -7 -15
0 -25 15 -12 62 52 31 42 97 158 90 158 -2 0 -9 -8 -17 -17z"/>
<path d="M2040 845 c7 -9 15 -13 17 -11 7 7 -7 26 -19 26 -6 0 -6 -6 2 -15z"/>
<path d="M1588 786 c-2 -19 -1 -33 3 -30 9 5 17 64 8 64 -4 0 -9 -15 -11 -34z"/>
<path d="M1219 793 c-12 -16 -12 -17 2 -6 9 7 20 9 24 5 5 -4 5 -1 1 6 -9 16
-11 15 -27 -5z"/>
<path d="M1179 743 c-13 -16 -12 -17 4 -4 9 7 17 15 17 17 0 8 -8 3 -21 -13z"/>
<path d="M1347 693 c-33 -47 -37 -56 -14 -29 32 36 72 96 65 96 -2 0 -25 -30
-51 -67z"/>
<path d="M2142 740 c0 -14 2 -19 5 -12 2 6 2 18 0 25 -3 6 -5 1 -5 -13z"/>
<path d="M1582 720 c0 -14 2 -19 5 -12 2 6 2 18 0 25 -3 6 -5 1 -5 -13z"/>
<path d="M2131 694 c0 -11 3 -14 6 -6 3 7 2 16 -1 19 -3 4 -6 -2 -5 -13z"/>
<path d="M1077 679 c7 -7 15 -10 18 -7 3 3 -2 9 -12 12 -14 6 -15 5 -6 -5z"/>
<path d="M1602 660 c0 -19 2 -27 5 -17 2 9 2 25 0 35 -3 9 -5 1 -5 -18z"/>
<path d="M2170 640 c-8 -5 -10 -10 -5 -10 6 0 17 5 25 10 8 5 11 10 5 10 -5 0
-17 -5 -25 -10z"/>
<path d="M1230 630 c-8 -5 -10 -10 -5 -10 6 0 17 5 25 10 8 5 11 10 5 10 -5 0
-17 -5 -25 -10z"/>
<path d="M2058 633 c6 -2 18 -2 25 0 6 3 1 5 -13 5 -14 0 -19 -2 -12 -5z"/>
<path d="M2096 621 c-3 -4 6 -6 19 -3 14 2 25 6 25 8 0 8 -39 4 -44 -5z"/>
<path d="M2151 616 c2 -2 15 -9 29 -16 23 -12 24 -12 11 3 -7 10 -20 17 -29
17 -8 0 -13 -2 -11 -4z"/>
<path d="M1532 585 c-10 -12 -10 -15 2 -15 7 0 16 7 20 15 7 19 -5 19 -22 0z"/>
<path d="M1928 593 c6 -2 18 -2 25 0 6 3 1 5 -13 5 -14 0 -19 -2 -12 -5z"/>
<path d="M2128 583 c6 -2 18 -2 25 0 6 3 1 5 -13 5 -14 0 -19 -2 -12 -5z"/>
<path d="M2078 573 c6 -2 18 -2 25 0 6 3 1 5 -13 5 -14 0 -19 -2 -12 -5z"/>
<path d="M1468 553 c12 -2 32 -2 45 0 12 2 2 4 -23 4 -25 0 -35 -2 -22 -4z"/>
<path d="M2388 403 c12 -2 32 -2 45 0 12 2 2 4 -23 4 -25 0 -35 -2 -22 -4z"/>
<path d="M2070 360 c-14 -10 -22 -21 -19 -24 3 -3 16 5 29 19 28 30 24 32 -10
5z"/>
<path d="M2110 376 c0 -2 7 -7 16 -10 8 -3 12 -2 9 4 -6 10 -25 14 -25 6z"/>
<path d="M2230 359 c-35 -19 -35 -19 -5 -13 l30 7 -22 -22 c-13 -12 -23 -27
-23 -33 0 -7 3 -8 8 -2 4 5 23 26 41 47 38 40 27 46 -29 16z"/>
<path d="M1175 360 c68 -7 376 -2 384 6 2 2 -99 3 -225 2 -153 -1 -206 -3
-159 -8z"/>
<path d="M1578 363 c6 -2 18 -2 25 0 6 3 1 5 -13 5 -14 0 -19 -2 -12 -5z"/>
<path d="M1418 345 c-2 -3 -42 -6 -89 -7 -51 -1 -74 -4 -59 -8 14 -4 -19 -5
-72 -2 -55 3 -98 1 -98 -4 0 -5 35 -10 78 -12 113 -4 113 -4 162 7 25 6 107
10 182 11 80 0 139 4 143 10 6 10 -237 15 -247 5z"/>
<path d="M2385 340 c28 -12 83 -12 90 0 4 6 -16 10 -52 9 -42 0 -52 -3 -38 -9z"/>
<path d="M1797 334 c-3 -3 0 -25 8 -49 7 -24 10 -47 6 -51 -3 -4 -1 -4 6 0 9
5 9 17 -1 51 -10 32 -11 45 -2 49 7 3 7 5 0 5 -6 1 -13 -2 -17 -5z"/>
<path d="M1930 315 c-14 -8 -20 -14 -14 -15 5 0 19 7 30 15 24 18 16 19 -16 0z"/>
<path d="M1885 292 c-5 -4 -17 -16 -25 -27 -11 -15 -7 -14 13 4 24 22 32 31
25 31 -2 0 -7 -4 -13 -8z"/>
<path d="M2718 283 c7 -3 16 -2 19 1 4 3 -2 6 -13 5 -11 0 -14 -3 -6 -6z"/>
<path d="M2230 250 c-12 -8 -9 -10 12 -10 15 0 30 5 33 10 8 13 -25 13 -45 0z"/>
<path d="M2333 240 c-7 -25 -12 -25 -30 -2 -8 9 -12 12 -9 6 7 -14 -35 -26
-61 -18 -14 5 -15 4 -7 -5 7 -7 32 -11 65 -9 48 3 54 5 55 26 2 27 -6 29 -13
2z"/>
<path d="M2366 238 c3 -4 9 -8 15 -8 5 0 9 4 9 8 0 5 -7 9 -15 9 -8 0 -12 -4
-9 -9z"/>
<path d="M2349 203 c-13 -15 -12 -15 9 -4 23 12 28 21 13 21 -5 0 -15 -7 -22
-17z"/>
<path d="M453 173 c15 -2 39 -2 55 0 15 2 2 4 -28 4 -30 0 -43 -2 -27 -4z"/>
<path d="M2648 163 c23 -2 59 -2 80 0 20 2 1 4 -43 4 -44 0 -61 -2 -37 -4z"/>
</g>
</svg>
